Raleway-Bold-Italic-OTF.ufo
<glyph name="dollar" format="1">
  <advance width="611"/>
  <unicode hex="0024"/>
  <outline>
    <contour>
      <point x="617" y="636" type="line"/>
      <point x="573" y="673"/>
      <point x="507" y="707"/>
      <point x="425" y="714" type="curve"/>
      <point x="447" y="815" type="line"/>
      <point x="388" y="815" type="line"/>
      <point x="366" y="714" type="line"/>
      <point x="222" y="702"/>
      <point x="96" y="607"/>
      <point x="96" y="453" type="curve" smooth="yes"/>
      <point x="96" y="371"/>
      <point x="149" y="332"/>
      <point x="250" y="300" type="curve" smooth="yes"/>
      <point x="285" y="289" type="line"/>
      <point x="249" y="118" type="line"/>
      <point x="160" y="129"/>
      <point x="86" y="181"/>
      <point x="74" y="203" type="curve"/>
      <point x="-12" y="84" type="line"/>
      <point x="45" y="33"/>
      <point x="126" y="1"/>
      <point x="213" y="-6" type="curve"/>
      <point x="190" y="-117" type="line"/>
      <point x="249" y="-117" type="line"/>
      <point x="272" y="-7" type="line"/>
      <point x="416" y="-1"/>
      <point x="554" y="72"/>
      <point x="554" y="244" type="curve" smooth="yes"/>
      <point x="554" y="363"/>
      <point x="438" y="395"/>
      <point x="353" y="420" type="curve"/>
      <point x="390" y="592" type="line"/>
      <point x="462" y="584"/>
      <point x="524" y="542"/>
      <point x="533" y="524" type="curve"/>
    </contour>
    <contour>
      <point x="400" y="202" type="curve" smooth="yes"/>
      <point x="400" y="152"/>
      <point x="363" y="118"/>
      <point x="289" y="116" type="curve"/>
      <point x="323" y="276" type="line"/>
      <point x="370" y="258"/>
      <point x="400" y="238"/>
    </contour>
    <contour>
      <point x="247" y="499" type="curve" smooth="yes"/>
      <point x="247" y="551"/>
      <point x="282" y="588"/>
      <point x="350" y="593" type="curve"/>
      <point x="316" y="432" type="line"/>
      <point x="271" y="448"/>
      <point x="247" y="466"/>
    </contour>
  </outline>
</glyph>
<glyph name="bracketleft" format="1">
  <advance width="302"/>
  <unicode hex="005B"/>
  <outline>
    <contour>
      <point x="186" y="-40" type="line"/>
      <point x="209" y="67" type="line"/>
      <point x="148" y="67" type="line"/>
      <point x="268" y="633" type="line"/>
      <point x="329" y="633" type="line"/>
      <point x="351" y="740" type="line"/>
      <point x="167" y="740" type="line"/>
      <point x="1" y="-40" type="line"/>
    </contour>
  </outline>
</glyph>
<glyph name="k" format="1">
  <advance width="560"/>
  <unicode hex="006B"/>
  <outline>
    <contour>
      <point x="227" y="0" type="move" name="bottom"/>
    </contour>
    <contour>
      <point x="-4" y="0" type="line"/>
      <point x="129" y="0" type="line"/>
      <point x="179" y="237" type="line"/>
      <point x="217" y="337"/>
      <point x="301" y="418"/>
      <point x="369" y="418" type="curve" smooth="yes"/>
      <point x="396" y="418"/>
      <point x="415" y="404"/>
      <point x="415" y="373" type="curve" smooth="yes"/>
      <point x="415" y="316"/>
      <point x="351" y="260"/>
      <point x="238" y="237" type="curve"/>
      <point x="340" y="0" type="line"/>
      <point x="482" y="0" type="line"/>
      <point x="384" y="205" type="line"/>
      <point x="482" y="253"/>
      <point x="535" y="331"/>
      <point x="535" y="417" type="curve" smooth="yes"/>
      <point x="535" y="488"/>
      <point x="499" y="531"/>
      <point x="426" y="531" type="curve" smooth="yes"/>
      <point x="340" y="531"/>
      <point x="268" y="474"/>
      <point x="212" y="390" type="curve"/>
      <point x="284" y="730" type="line"/>
      <point x="151" y="730" type="line"/>
    </contour>
  </outline>
</glyph>
<glyph name="q" format="1">
  <advance width="611"/>
  <unicode hex="0071"/>
  <outline>
    <contour>
      <point x="183" y="-10" type="curve" smooth="yes"/>
      <point x="256" y="-10"/>
      <point x="323" y="25"/>
      <point x="373" y="92" type="curve"/>
      <point x="328" y="-121" type="line" smooth="yes"/>
      <point x="327" y="-128"/>
      <point x="326" y="-134"/>
      <point x="326" y="-141" type="curve" smooth="yes"/>
      <point x="326" y="-185"/>
      <point x="360" y="-212"/>
      <point x="408" y="-212" type="curve" smooth="yes"/>
      <point x="429" y="-212"/>
      <point x="457" y="-210"/>
      <point x="480" y="-206" type="curve"/>
      <point x="504" y="-92" type="line"/>
      <point x="483" y="-91"/>
      <point x="475" y="-85"/>
      <point x="475" y="-69" type="curve" smooth="yes"/>
      <point x="475" y="-64"/>
      <point x="476" y="-59"/>
      <point x="477" y="-52" type="curve" smooth="yes"/>
      <point x="599" y="524" type="line"/>
      <point x="482" y="524" type="line"/>
      <point x="463" y="433" type="line"/>
      <point x="440" y="493"/>
      <point x="389" y="533"/>
      <point x="313" y="533" type="curve" smooth="yes"/>
      <point x="160" y="533"/>
      <point x="15" y="383"/>
      <point x="15" y="202" type="curve" smooth="yes"/>
      <point x="15" y="83"/>
      <point x="77" y="-10"/>
    </contour>
    <contour>
      <point x="257" y="104" type="curve" smooth="yes"/>
      <point x="193" y="104"/>
      <point x="155" y="156"/>
      <point x="155" y="225" type="curve" smooth="yes"/>
      <point x="155" y="323"/>
      <point x="235" y="419"/>
      <point x="321" y="419" type="curve" smooth="yes"/>
      <point x="373" y="419"/>
      <point x="417" y="373"/>
      <point x="421" y="314" type="curve"/>
      <point x="394" y="190" type="line"/>
      <point x="356" y="139"/>
      <point x="309" y="104"/>
    </contour>
  </outline>
</glyph>
<glyph name="x" format="1">
  <advance width="511"/>
  <unicode hex="0078"/>
  <outline>
    <contour>
      <point x="-60" y="0" type="line"/>
      <point x="78" y="0" type="line"/>
      <point x="218" y="163" type="line"/>
      <point x="230" y="180" type="line"/>
      <point x="235" y="163" type="line"/>
      <point x="305" y="0" type="line"/>
      <point x="443" y="0" type="line"/>
      <point x="320" y="261" type="line"/>
      <point x="552" y="524" type="line"/>
      <point x="415" y="524" type="line"/>
      <point x="276" y="360" type="line"/>
      <point x="264" y="342" type="line"/>
      <point x="259" y="360" type="line"/>
      <point x="192" y="524" type="line"/>
      <point x="55" y="524" type="line"/>
      <point x="175" y="261" type="line"/>
    </contour>
  </outline>
</glyph>
<glyph name="asciitilde" format="1">
  <advance width="546"/>
  <unicode hex="007E"/>
  <outline>
    <contour>
      <point x="41" y="228" type="curve"/>
      <point x="115" y="228" type="line"/>
      <point x="115" y="230"/>
      <point x="130" y="280"/>
      <point x="184" y="280" type="curve" smooth="yes"/>
      <point x="240" y="280"/>
      <point x="279" y="228"/>
      <point x="349" y="228" type="curve" smooth="yes"/>
      <point x="457" y="228"/>
      <point x="502" y="344"/>
      <point x="503" y="358" type="curve"/>
      <point x="430" y="358" type="line"/>
      <point x="430" y="353"/>
      <point x="411" y="306"/>
      <point x="357" y="306" type="curve" smooth="yes"/>
      <point x="299" y="306"/>
      <point x="262" y="360"/>
      <point x="191" y="360" type="curve" smooth="yes"/>
      <point x="88" y="360"/>
      <point x="44" y="251"/>
    </contour>
  </outline>
</glyph>
<glyph name="cent" format="1">
  <advance width="571"/>
  <unicode hex="00A2"/>
  <outline>
    <contour>
      <point x="237" y="-120" type="line"/>
      <point x="261" y="-10" type="line"/>
      <point x="325" y="-10"/>
      <point x="441" y="35"/>
      <point x="498" y="126" type="curve"/>
      <point x="376" y="166" type="line"/>
      <point x="359" y="135"/>
      <point x="318" y="113"/>
      <point x="286" y="107" type="curve"/>
      <point x="351" y="415" type="line"/>
      <point x="380" y="412"/>
      <point x="406" y="393"/>
      <point x="415" y="359" type="curve"/>
      <point x="554" y="399" type="line"/>
      <point x="530" y="483"/>
      <point x="463" y="529"/>
      <point x="376" y="532" type="curve"/>
      <point x="400" y="645" type="line"/>
      <point x="340" y="645" type="line"/>
      <point x="316" y="532" type="line"/>
      <point x="138" y="506"/>
      <point x="27" y="358"/>
      <point x="27" y="212" type="curve" smooth="yes"/>
      <point x="27" y="104"/>
      <point x="91" y="0"/>
      <point x="201" y="-9" type="curve"/>
      <point x="177" y="-120" type="line"/>
    </contour>
    <contour>
      <point x="165" y="223" type="curve" smooth="yes"/>
      <point x="165" y="302"/>
      <point x="220" y="393"/>
      <point x="290" y="409" type="curve"/>
      <point x="227" y="113" type="line"/>
      <point x="188" y="127"/>
      <point x="165" y="173"/>
    </contour>
  </outline>
</glyph>
<glyph name="ordfeminine" format="1">
  <advance width="425"/>
  <unicode hex="00AA"/>
  <outline>
    <contour>
      <point x="191" y="519" type="move" name="top"/>
    </contour>
    <contour>
      <point x="384" y="11" type="move" name="bottom"/>
    </contour>
    <contour>
      <point x="160" y="339" type="curve" smooth="yes"/>
      <point x="207" y="339"/>
      <point x="255" y="362"/>
      <point x="294" y="404" type="curve"/>
      <point x="293" y="394"/>
      <point x="292" y="385"/>
      <point x="292" y="381" type="curve" smooth="yes"/>
      <point x="292" y="355"/>
      <point x="309" y="341"/>
      <point x="346" y="341" type="curve" smooth="yes"/>
      <point x="356" y="341"/>
      <point x="372" y="342"/>
      <point x="388" y="345" type="curve"/>
      <point x="406" y="430" type="line"/>
      <point x="392" y="431"/>
      <point x="386" y="435"/>
      <point x="386" y="448" type="curve" smooth="yes"/>
      <point x="386" y="451"/>
      <point x="386" y="455"/>
      <point x="387" y="459" type="curve" smooth="yes"/>
      <point x="410" y="563" type="line" smooth="yes"/>
      <point x="413" y="578"/>
      <point x="415" y="592"/>
      <point x="415" y="606" type="curve" smooth="yes"/>
      <point x="415" y="676"/>
      <point x="368" y="713"/>
      <point x="284" y="713" type="curve" smooth="yes"/>
      <point x="232" y="713"/>
      <point x="183" y="698"/>
      <point x="132" y="666" type="curve"/>
      <point x="148" y="605" type="line"/>
      <point x="191" y="631"/>
      <point x="225" y="645"/>
      <point x="262" y="645" type="curve" smooth="yes"/>
      <point x="300" y="645"/>
      <point x="318" y="628"/>
      <point x="318" y="596" type="curve" smooth="yes"/>
      <point x="318" y="590"/>
      <point x="317" y="583"/>
      <point x="316" y="575" type="curve" smooth="yes"/>
      <point x="312" y="556" type="line"/>
      <point x="293" y="566"/>
      <point x="267" y="572"/>
      <point x="237" y="572" type="curve" smooth="yes"/>
      <point x="143" y="572"/>
      <point x="68" y="512"/>
      <point x="68" y="432" type="curve" smooth="yes"/>
      <point x="68" y="378"/>
      <point x="105" y="339"/>
    </contour>
    <contour>
      <point x="204" y="411" type="curve" smooth="yes"/>
      <point x="179" y="411"/>
      <point x="162" y="429"/>
      <point x="162" y="453" type="curve" smooth="yes"/>
      <point x="162" y="489"/>
      <point x="198" y="515"/>
      <point x="243" y="515" type="curve" smooth="yes"/>
      <point x="262" y="515"/>
      <point x="284" y="511"/>
      <point x="300" y="503" type="curve"/>
      <point x="292" y="464" type="line" smooth="yes"/>
      <point x="286" y="437"/>
      <point x="238" y="411"/>
    </contour>
  </outline>
</glyph>
<glyph name="degree" format="1">
  <advance width="278"/>
  <unicode hex="00B0"/>
  <outline>
    <contour>
      <point x="183" y="519" type="curve" smooth="yes"/>
      <point x="251" y="519"/>
      <point x="307" y="573"/>
      <point x="307" y="643" type="curve" smooth="yes"/>
      <point x="307" y="689"/>
      <point x="276" y="724"/>
      <point x="227" y="724" type="curve" smooth="yes"/>
      <point x="157" y="724"/>
      <point x="103" y="662"/>
      <point x="103" y="598" type="curve" smooth="yes"/>
      <point x="103" y="551"/>
      <point x="134" y="519"/>
    </contour>
    <contour>
      <point x="197" y="584" type="curve" smooth="yes"/>
      <point x="179" y="584"/>
      <point x="169" y="597"/>
      <point x="169" y="615" type="curve" smooth="yes"/>
      <point x="169" y="638"/>
      <point x="191" y="659"/>
      <point x="213" y="659" type="curve" smooth="yes"/>
      <point x="228" y="659"/>
      <point x="240" y="648"/>
      <point x="240" y="629" type="curve" smooth="yes"/>
      <point x="240" y="605"/>
      <point x="217" y="584"/>
    </contour>
  </outline>
</glyph>
<glyph name="cedilla" format="1">
  <advance width="313"/>
  <unicode hex="00B8"/>
  <outline>
    <contour>
      <point x="120" y="0" type="move" name="_bottom"/>
    </contour>
    <contour>
      <point x="-18" y="-176" type="line"/>
      <point x="5" y="-187"/>
      <point x="38" y="-196"/>
      <point x="80" y="-196" type="curve" smooth="yes"/>
      <point x="177" y="-196"/>
      <point x="225" y="-151"/>
      <point x="225" y="-94" type="curve" smooth="yes"/>
      <point x="225" y="-55"/>
      <point x="195" y="-38"/>
      <point x="157" y="-38" type="curve" smooth="yes"/>
      <point x="147" y="-38"/>
      <point x="135" y="-39"/>
      <point x="126" y="-42" type="curve"/>
      <point x="171" y="12" type="line"/>
      <point x="122" y="28" type="line"/>
      <point x="39" y="-92" type="line"/>
      <point x="55" y="-88"/>
      <point x="91" y="-80"/>
      <point x="117" y="-80" type="curve" smooth="yes"/>
      <point x="144" y="-80"/>
      <point x="161" y="-87"/>
      <point x="161" y="-107" type="curve" smooth="yes"/>
      <point x="161" y="-135"/>
      <point x="136" y="-146"/>
      <point x="100" y="-146" type="curve" smooth="yes"/>
      <point x="66" y="-146"/>
      <point x="32" y="-136"/>
      <point x="19" y="-127" type="curve"/>
    </contour>
  </outline>
</glyph>
<glyph name="questiondown" format="1">
  <advance width="466"/>
  <unicode hex="00BF"/>
  <outline>
    <contour>
      <point x="237" y="273" type="line"/>
      <point x="223" y="205"/>
      <point x="159" y="185"/>
      <point x="101" y="152" type="curve" smooth="yes"/>
      <point x="24" y="109"/>
      <point x="-37" y="61"/>
      <point x="-37" y="-57" type="curve" smooth="yes"/>
      <point x="-37" y="-166"/>
      <point x="42" y="-213"/>
      <point x="125" y="-213" type="curve" smooth="yes"/>
      <point x="213" y="-213"/>
      <point x="301" y="-166"/>
      <point x="352" y="-84" type="curve"/>
      <point x="277" y="-24" type="line"/>
      <point x="250" y="-60"/>
      <point x="207" y="-104"/>
      <point x="153" y="-104" type="curve" smooth="yes"/>
      <point x="114" y="-104"/>
      <point x="83" y="-79"/>
      <point x="83" y="-35" type="curve" smooth="yes"/>
      <point x="83" y="42"/>
      <point x="158" y="78"/>
      <point x="237" y="117" type="curve" smooth="yes"/>
      <point x="310" y="153"/>
      <point x="334" y="208"/>
      <point x="347" y="273" type="curve"/>
    </contour>
    <contour>
      <point x="284" y="506" type="line"/>
      <point x="255" y="368" type="line"/>
      <point x="365" y="368" type="line"/>
      <point x="394" y="506" type="line"/>
    </contour>
  </outline>
</glyph>
<glyph name="Edieresis" format="1">
  <advance width="578"/>
  <unicode hex="00CB"/>
  <outline>
    <contour>
      <point x="369" y="791" type="line"/>
      <point x="395" y="910" type="line"/>
      <point x="284" y="910" type="line"/>
      <point x="258" y="791" type="line"/>
    </contour>
    <contour>
      <point x="557" y="791" type="line"/>
      <point x="581" y="910" type="line"/>
      <point x="471" y="910" type="line"/>
      <point x="446" y="791" type="line"/>
    </contour>
    <contour>
      <point x="10" y="0" type="line"/>
      <point x="479" y="0" type="line"/>
      <point x="505" y="121" type="line"/>
      <point x="173" y="121" type="line"/>
      <point x="212" y="306" type="line"/>
      <point x="491" y="306" type="line"/>
      <point x="515" y="418" type="line"/>
      <point x="236" y="418" type="line"/>
      <point x="272" y="589" type="line"/>
      <point x="596" y="589" type="line"/>
      <point x="621" y="710" type="line"/>
      <point x="161" y="710" type="line"/>
    </contour>
  </outline>
</glyph>
<glyph name="Iacute" format="1">
  <advance width="285"/>
  <unicode hex="00CD"/>
  <outline>
    <contour>
      <point x="10" y="0" type="line"/>
      <point x="147" y="0" type="line"/>
      <point x="298" y="709" type="line"/>
      <point x="161" y="709" type="line"/>
    </contour>
    <contour>
      <point x="370" y="916" type="line"/>
      <point x="246" y="916" type="line"/>
      <point x="170" y="797" type="line"/>
      <point x="257" y="780" type="line"/>
    </contour>
  </outline>
</glyph>
<glyph name="aring" format="1">
  <advance width="624"/>
  <unicode hex="00E5"/>
  <outline>
    <contour>
      <point x="201" y="-10" type="curve" smooth="yes"/>
      <point x="270" y="-10"/>
      <point x="344" y="25"/>
      <point x="394" y="91" type="curve"/>
      <point x="390" y="74"/>
      <point x="388" y="62"/>
      <point x="388" y="53" type="curve" smooth="yes"/>
      <point x="388" y="13"/>
      <point x="417" y="-7"/>
      <point x="464" y="-7" type="curve" smooth="yes"/>
      <point x="477" y="-7"/>
      <point x="495" y="-4"/>
      <point x="519" y="0" type="curve"/>
      <point x="543" y="114" type="line"/>
      <point x="527" y="115"/>
      <point x="519" y="121"/>
      <point x="519" y="136" type="curve" smooth="yes"/>
      <point x="519" y="141"/>
      <point x="520" y="147"/>
      <point x="522" y="154" type="curve" smooth="yes"/>
      <point x="600" y="522" type="line"/>
      <point x="466" y="522" type="line"/>
      <point x="446" y="432" type="line"/>
      <point x="427" y="491"/>
      <point x="374" y="533"/>
      <point x="302" y="533" type="curve" smooth="yes"/>
      <point x="150" y="533"/>
      <point x="15" y="378"/>
      <point x="15" y="205" type="curve" smooth="yes"/>
      <point x="15" y="84"/>
      <point x="85" y="-10"/>
    </contour>
    <contour>
      <point x="261" y="104" type="curve" smooth="yes"/>
      <point x="196" y="104"/>
      <point x="156" y="157"/>
      <point x="156" y="226" type="curve" smooth="yes"/>
      <point x="156" y="322"/>
      <point x="234" y="419"/>
      <point x="320" y="419" type="curve" smooth="yes"/>
      <point x="370" y="419"/>
      <point x="414" y="375"/>
      <point x="422" y="317" type="curve"/>
      <point x="396" y="192" type="line"/>
      <point x="367" y="141"/>
      <point x="307" y="104"/>
    </contour>
    <contour>
      <point x="247" y="638" type="curve" smooth="yes"/>
      <point x="247" y="599"/>
      <point x="278" y="576"/>
      <point x="327" y="576" type="curve" smooth="yes"/>
      <point x="393" y="576"/>
      <point x="440" y="611"/>
      <point x="440" y="668" type="curve" smooth="yes"/>
      <point x="440" y="707"/>
      <point x="410" y="730"/>
      <point x="360" y="730" type="curve" smooth="yes"/>
      <point x="295" y="730"/>
      <point x="247" y="696"/>
    </contour>
    <contour>
      <point x="351" y="689" type="curve" smooth="yes"/>
      <point x="370" y="689"/>
      <point x="383" y="677"/>
      <point x="383" y="659" type="curve" smooth="yes"/>
      <point x="383" y="635"/>
      <point x="359" y="617"/>
      <point x="336" y="617" type="curve" smooth="yes"/>
      <point x="317" y="617"/>
      <point x="305" y="630"/>
      <point x="305" y="647" type="curve" smooth="yes"/>
      <point x="305" y="671"/>
      <point x="326" y="689"/>
    </contour>
  </outline>
</glyph>
<glyph name="ccedilla" format="1">
  <advance width="542"/>
  <unicode hex="00E7"/>
  <outline>
    <contour>
      <point x="82" y="-176" type="line"/>
      <point x="105" y="-187"/>
      <point x="138" y="-196"/>
      <point x="180" y="-196" type="curve" smooth="yes"/>
      <point x="277" y="-196"/>
      <point x="325" y="-151"/>
      <point x="325" y="-94" type="curve" smooth="yes"/>
      <point x="325" y="-55"/>
      <point x="295" y="-38"/>
      <point x="257" y="-38" type="curve" smooth="yes"/>
      <point x="247" y="-38"/>
      <point x="235" y="-39"/>
      <point x="226" y="-42" type="curve"/>
      <point x="253" y="-9" type="line"/>
      <point x="353" y="-1"/>
      <point x="437" y="53"/>
      <point x="485" y="126" type="curve"/>
      <point x="363" y="166" type="line"/>
      <point x="340" y="131"/>
      <point x="294" y="104"/>
      <point x="251" y="104" type="curve" smooth="yes"/>
      <point x="193" y="104"/>
      <point x="154" y="155"/>
      <point x="154" y="226" type="curve" smooth="yes"/>
      <point x="154" y="336"/>
      <point x="234" y="419"/>
      <point x="317" y="419" type="curve" smooth="yes"/>
      <point x="359" y="419"/>
      <point x="390" y="397"/>
      <point x="403" y="359" type="curve"/>
      <point x="541" y="399" type="line"/>
      <point x="520" y="479"/>
      <point x="453" y="533"/>
      <point x="343" y="533" type="curve" smooth="yes"/>
      <point x="153" y="533"/>
      <point x="15" y="376"/>
      <point x="15" y="210" type="curve" smooth="yes"/>
      <point x="15" y="99"/>
      <point x="78" y="5"/>
      <point x="197" y="-8" type="curve"/>
      <point x="139" y="-92" type="line"/>
      <point x="155" y="-88"/>
      <point x="191" y="-80"/>
      <point x="217" y="-80" type="curve" smooth="yes"/>
      <point x="244" y="-80"/>
      <point x="261" y="-87"/>
      <point x="261" y="-107" type="curve" smooth="yes"/>
      <point x="261" y="-135"/>
      <point x="236" y="-146"/>
      <point x="200" y="-146" type="curve" smooth="yes"/>
      <point x="166" y="-146"/>
      <point x="132" y="-136"/>
      <point x="119" y="-127" type="curve"/>
    </contour>
  </outline>
</glyph>
<glyph name="eth" format="1">
  <advance width="592"/>
  <unicode hex="00F0"/>
  <outline>
    <contour>
      <point x="555" y="713" type="line"/>
      <point x="468" y="667" type="line"/>
      <point x="448" y="691"/>
      <point x="425" y="713"/>
      <point x="398" y="730" type="curve"/>
      <point x="228" y="730" type="line"/>
      <point x="284" y="694"/>
      <point x="326" y="657"/>
      <point x="357" y="620" type="curve"/>
      <point x="271" y="574" type="line"/>
      <point x="298" y="522" type="line"/>
      <point x="391" y="571" type="line"/>
      <point x="423" y="516"/>
      <point x="436" y="457"/>
      <point x="439" y="394" type="curve"/>
      <point x="414" y="441"/>
      <point x="361" y="472"/>
      <point x="297" y="472" type="curve" smooth="yes"/>
      <point x="152" y="472"/>
      <point x="12" y="342"/>
      <point x="12" y="191" type="curve" smooth="yes"/>
      <point x="12" y="76"/>
      <point x="96" y="-10"/>
      <point x="225" y="-10" type="curve" smooth="yes"/>
      <point x="411" y="-10"/>
      <point x="565" y="141"/>
      <point x="565" y="375" type="curve" smooth="yes"/>
      <point x="565" y="457"/>
      <point x="545" y="546"/>
      <point x="502" y="619" type="curve"/>
      <point x="582" y="660" type="line"/>
    </contour>
    <contour>
      <point x="151" y="208" type="curve" smooth="yes"/>
      <point x="151" y="294"/>
      <point x="225" y="364"/>
      <point x="308" y="364" type="curve" smooth="yes"/>
      <point x="370" y="364"/>
      <point x="409" y="321"/>
      <point x="409" y="262" type="curve" smooth="yes"/>
      <point x="409" y="178"/>
      <point x="335" y="104"/>
      <point x="251" y="104" type="curve" smooth="yes"/>
      <point x="190" y="104"/>
      <point x="151" y="149"/>
    </contour>
  </outline>
</glyph>
<glyph name="ntilde" format="1">
  <advance width="582"/>
  <unicode hex="00F1"/>
  <outline>
    <contour>
      <point x="-4" y="0" type="line"/>
      <point x="130" y="0" type="line"/>
      <point x="195" y="306" type="line"/>
      <point x="227" y="369"/>
      <point x="293" y="415"/>
      <point x="342" y="415" type="curve" smooth="yes"/>
      <point x="377" y="415"/>
      <point x="399" y="393"/>
      <point x="399" y="347" type="curve" smooth="yes"/>
      <point x="399" y="332"/>
      <point x="396" y="314"/>
      <point x="392" y="294" type="curve" smooth="yes"/>
      <point x="330" y="0" type="line"/>
      <point x="464" y="0" type="line"/>
      <point x="533" y="327" type="line" smooth="yes"/>
      <point x="539" y="356"/>
      <point x="543" y="385"/>
      <point x="543" y="412" type="curve" smooth="yes"/>
      <point x="543" y="480"/>
      <point x="516" y="533"/>
      <point x="426" y="533" type="curve" smooth="yes"/>
      <point x="340" y="533"/>
      <point x="258" y="493"/>
      <point x="207" y="427" type="curve"/>
      <point x="228" y="524" type="line"/>
      <point x="107" y="524" type="line"/>
    </contour>
    <contour>
      <point x="405" y="602" type="curve" smooth="yes"/>
      <point x="495" y="602"/>
      <point x="547" y="711"/>
      <point x="551" y="730" type="curve"/>
      <point x="478" y="730" type="line"/>
      <point x="477" y="726"/>
      <point x="462" y="680"/>
      <point x="417" y="680" type="curve" smooth="yes"/>
      <point x="372" y="680"/>
      <point x="360" y="727"/>
      <point x="302" y="727" type="curve" smooth="yes"/>
      <point x="216" y="727"/>
      <point x="166" y="624"/>
      <point x="161" y="599" type="curve"/>
      <point x="235" y="599" type="line"/>
      <point x="235" y="602"/>
      <point x="247" y="647"/>
      <point x="289" y="647" type="curve" smooth="yes"/>
      <point x="331" y="647"/>
      <point x="348" y="602"/>
    </contour>
  </outline>
</glyph>
<glyph name="oslash" format="1">
  <advance width="586"/>
  <unicode hex="00F8"/>
  <outline>
    <contour>
      <point x="-16" y="-4" type="line"/>
      <point x="58" y="-4" type="line"/>
      <point x="95" y="31" type="line"/>
      <point x="128" y="5"/>
      <point x="173" y="-10"/>
      <point x="227" y="-10" type="curve" smooth="yes"/>
      <point x="417" y="-10"/>
      <point x="554" y="150"/>
      <point x="554" y="314" type="curve" smooth="yes"/>
      <point x="554" y="369"/>
      <point x="538" y="420"/>
      <point x="508" y="459" type="curve"/>
      <point x="581" y="528" type="line"/>
      <point x="505" y="528" type="line"/>
      <point x="471" y="495" type="line"/>
      <point x="438" y="519"/>
      <point x="395" y="533"/>
      <point x="343" y="533" type="curve" smooth="yes"/>
      <point x="153" y="533"/>
      <point x="15" y="374"/>
      <point x="15" y="208" type="curve" smooth="yes"/>
      <point x="15" y="155"/>
      <point x="29" y="105"/>
      <point x="58" y="67" type="curve"/>
    </contour>
    <contour>
      <point x="251" y="104" type="curve" smooth="yes"/>
      <point x="226" y="104"/>
      <point x="205" y="112"/>
      <point x="189" y="128" type="curve"/>
      <point x="404" y="358" type="line"/>
      <point x="411" y="340"/>
      <point x="415" y="320"/>
      <point x="415" y="298" type="curve" smooth="yes"/>
      <point x="415" y="191"/>
      <point x="334" y="104"/>
    </contour>
    <contour>
      <point x="154" y="225" type="curve" smooth="yes"/>
      <point x="154" y="331"/>
      <point x="235" y="419"/>
      <point x="318" y="419" type="curve" smooth="yes"/>
      <point x="341" y="419"/>
      <point x="361" y="411"/>
      <point x="377" y="397" type="curve"/>
      <point x="164" y="167" type="line"/>
      <point x="157" y="184"/>
      <point x="154" y="203"/>
    </contour>
  </outline>
</glyph>
<glyph name="yacute" format="1">
  <advance width="520"/>
  <unicode hex="00FD"/>
  <outline>
    <contour>
      <point x="-28" y="-229" type="line"/>
      <point x="89" y="-227"/>
      <point x="164" y="-176"/>
      <point x="257" y="-26" type="curve" smooth="yes"/>
      <point x="337" y="103" type="line" smooth="yes"/>
      <point x="469" y="316"/>
      <point x="507" y="395"/>
      <point x="543" y="524" type="curve"/>
      <point x="413" y="524" type="line"/>
      <point x="385" y="403"/>
      <point x="345" y="308"/>
      <point x="263" y="172" type="curve" smooth="yes"/>
      <point x="229" y="116" type="line"/>
      <point x="184" y="524" type="line"/>
      <point x="47" y="524" type="line"/>
      <point x="134" y="-11" type="line"/>
      <point x="105" y="-50" type="line" smooth="yes"/>
      <point x="64" y="-106"/>
      <point x="36" y="-119"/>
      <point x="-44" y="-126" type="curve"/>
    </contour>
    <contour>
      <point x="443" y="730" type="line"/>
      <point x="319" y="730" type="line"/>
      <point x="243" y="611" type="line"/>
      <point x="330" y="594" type="line"/>
    </contour>
  </outline>
</glyph>
<glyph name="abreve" format="1">
  <advance width="624"/>
  <unicode hex="0103"/>
  <outline>
    <contour>
      <point x="201" y="-10" type="curve" smooth="yes"/>
      <point x="270" y="-10"/>
      <point x="344" y="25"/>
      <point x="394" y="91" type="curve"/>
      <point x="390" y="74"/>
      <point x="388" y="62"/>
      <point x="388" y="53" type="curve" smooth="yes"/>
      <point x="388" y="13"/>
      <point x="417" y="-7"/>
      <point x="464" y="-7" type="curve" smooth="yes"/>
      <point x="477" y="-7"/>
      <point x="495" y="-4"/>
      <point x="519" y="0" type="curve"/>
      <point x="543" y="114" type="line"/>
      <point x="527" y="115"/>
      <point x="519" y="121"/>
      <point x="519" y="136" type="curve" smooth="yes"/>
      <point x="519" y="141"/>
      <point x="520" y="147"/>
      <point x="522" y="154" type="curve" smooth="yes"/>
      <point x="600" y="522" type="line"/>
      <point x="466" y="522" type="line"/>
      <point x="446" y="432" type="line"/>
      <point x="427" y="491"/>
      <point x="374" y="533"/>
      <point x="302" y="533" type="curve" smooth="yes"/>
      <point x="150" y="533"/>
      <point x="15" y="378"/>
      <point x="15" y="205" type="curve" smooth="yes"/>
      <point x="15" y="84"/>
      <point x="85" y="-10"/>
    </contour>
    <contour>
      <point x="261" y="104" type="curve" smooth="yes"/>
      <point x="196" y="104"/>
      <point x="156" y="157"/>
      <point x="156" y="226" type="curve" smooth="yes"/>
      <point x="156" y="322"/>
      <point x="234" y="419"/>
      <point x="320" y="419" type="curve" smooth="yes"/>
      <point x="370" y="419"/>
      <point x="414" y="375"/>
      <point x="422" y="317" type="curve"/>
      <point x="396" y="192" type="line"/>
      <point x="367" y="141"/>
      <point x="307" y="104"/>
    </contour>
    <contour>
      <point x="339" y="656" type="curve" smooth="yes"/>
      <point x="314" y="656"/>
      <point x="296" y="680"/>
      <point x="296" y="710" type="curve" smooth="yes"/>
      <point x="296" y="717"/>
      <point x="297" y="723"/>
      <point x="299" y="730" type="curve"/>
      <point x="227" y="730" type="line"/>
      <point x="224" y="719"/>
      <point x="223" y="708"/>
      <point x="223" y="697" type="curve" smooth="yes"/>
      <point x="223" y="637"/>
      <point x="262" y="596"/>
      <point x="327" y="596" type="curve" smooth="yes"/>
      <point x="401" y="596"/>
      <point x="466" y="653"/>
      <point x="483" y="730" type="curve"/>
      <point x="411" y="730" type="line"/>
      <point x="398" y="687"/>
      <point x="367" y="656"/>
    </contour>
  </outline>
</glyph>
<glyph name="aogonek" format="1">
  <advance width="624"/>
  <unicode hex="0105"/>
  <outline>
    <contour>
      <point x="437" y="-196" type="curve"/>
      <point x="479" y="-126" type="line"/>
      <point x="444" y="-124"/>
      <point x="427" y="-111"/>
      <point x="427" y="-91" type="curve" smooth="yes"/>
      <point x="427" y="-64"/>
      <point x="456" y="-36"/>
      <point x="519" y="0" type="curve"/>
      <point x="543" y="114" type="line"/>
      <point x="527" y="115"/>
      <point x="519" y="121"/>
      <point x="519" y="136" type="curve" smooth="yes"/>
      <point x="519" y="141"/>
      <point x="520" y="147"/>
      <point x="522" y="154" type="curve" smooth="yes"/>
      <point x="600" y="522" type="line"/>
      <point x="466" y="522" type="line"/>
      <point x="446" y="432" type="line"/>
      <point x="427" y="491"/>
      <point x="374" y="533"/>
      <point x="302" y="533" type="curve" smooth="yes"/>
      <point x="150" y="533"/>
      <point x="15" y="378"/>
      <point x="15" y="205" type="curve" smooth="yes"/>
      <point x="15" y="84"/>
      <point x="85" y="-10"/>
      <point x="201" y="-10" type="curve" smooth="yes"/>
      <point x="270" y="-10"/>
      <point x="344" y="25"/>
      <point x="394" y="91" type="curve"/>
      <point x="390" y="74"/>
      <point x="388" y="62"/>
      <point x="388" y="53" type="curve" smooth="yes"/>
      <point x="388" y="21"/>
      <point x="405" y="3"/>
      <point x="436" y="-4" type="curve"/>
      <point x="372" y="-42"/>
      <point x="340" y="-81"/>
      <point x="340" y="-120" type="curve" smooth="yes"/>
      <point x="340" y="-156"/>
      <point x="371" y="-186"/>
    </contour>
    <contour>
      <point x="261" y="104" type="curve" smooth="yes"/>
      <point x="196" y="104"/>
      <point x="156" y="157"/>
      <point x="156" y="226" type="curve" smooth="yes"/>
      <point x="156" y="322"/>
      <point x="234" y="419"/>
      <point x="320" y="419" type="curve" smooth="yes"/>
      <point x="370" y="419"/>
      <point x="414" y="375"/>
      <point x="422" y="317" type="curve"/>
      <point x="396" y="192" type="line"/>
      <point x="367" y="141"/>
      <point x="307" y="104"/>
    </contour>
  </outline>
</glyph>
<glyph name="dcaron" format="1">
  <advance width="624"/>
  <unicode hex="010F"/>
  <outline>
    <contour>
      <point x="742" y="585" type="line"/>
      <point x="861" y="730" type="line"/>
      <point x="738" y="730" type="line"/>
      <point x="661" y="611" type="line"/>
    </contour>
    <contour>
      <point x="201" y="-10" type="curve" smooth="yes"/>
      <point x="270" y="-10"/>
      <point x="344" y="25"/>
      <point x="394" y="91" type="curve"/>
      <point x="390" y="72"/>
      <point x="388" y="60"/>
      <point x="388" y="50" type="curve" smooth="yes"/>
      <point x="388" y="12"/>
      <point x="417" y="-7"/>
      <point x="464" y="-7" type="curve" smooth="yes"/>
      <point x="477" y="-7"/>
      <point x="495" y="-4"/>
      <point x="519" y="0" type="curve"/>
      <point x="543" y="114" type="line"/>
      <point x="527" y="115"/>
      <point x="519" y="121"/>
      <point x="519" y="136" type="curve" smooth="yes"/>
      <point x="519" y="141"/>
      <point x="520" y="147"/>
      <point x="522" y="154" type="curve" smooth="yes"/>
      <point x="644" y="730" type="line"/>
      <point x="510" y="730" type="line"/>
      <point x="446" y="432" type="line"/>
      <point x="427" y="491"/>
      <point x="374" y="533"/>
      <point x="302" y="533" type="curve" smooth="yes"/>
      <point x="150" y="533"/>
      <point x="15" y="378"/>
      <point x="15" y="205" type="curve" smooth="yes"/>
      <point x="15" y="84"/>
      <point x="85" y="-10"/>
    </contour>
    <contour>
      <point x="261" y="104" type="curve" smooth="yes"/>
      <point x="196" y="104"/>
      <point x="156" y="157"/>
      <point x="156" y="226" type="curve" smooth="yes"/>
      <point x="156" y="322"/>
      <point x="234" y="419"/>
      <point x="320" y="419" type="curve" smooth="yes"/>
      <point x="370" y="419"/>
      <point x="414" y="375"/>
      <point x="422" y="317" type="curve"/>
      <point x="396" y="192" type="line"/>
      <point x="367" y="141"/>
      <point x="307" y="104"/>
    </contour>
  </outline>
</glyph>
<glyph name="ebreve" format="1">
  <advance width="551"/>
  <unicode hex="0115"/>
  <outline>
    <contour>
      <point x="230" y="-10" type="curve" smooth="yes"/>
      <point x="334" y="-10"/>
      <point x="438" y="46"/>
      <point x="492" y="127" type="curve"/>
      <point x="386" y="160" type="line"/>
      <point x="358" y="115"/>
      <point x="307" y="88"/>
      <point x="254" y="88" type="curve" smooth="yes"/>
      <point x="185" y="88"/>
      <point x="154" y="137"/>
      <point x="154" y="207" type="curve" smooth="yes"/>
      <point x="154" y="220" type="line"/>
      <point x="182" y="218"/>
      <point x="207" y="218"/>
      <point x="231" y="218" type="curve" smooth="yes"/>
      <point x="432" y="218"/>
      <point x="533" y="275"/>
      <point x="533" y="387" type="curve" smooth="yes"/>
      <point x="533" y="481"/>
      <point x="460" y="533"/>
      <point x="347" y="533" type="curve" smooth="yes"/>
      <point x="160" y="533"/>
      <point x="16" y="385"/>
      <point x="16" y="211" type="curve" smooth="yes"/>
      <point x="16" y="83"/>
      <point x="97" y="-10"/>
    </contour>
    <contour>
      <point x="327" y="436" type="curve" smooth="yes"/>
      <point x="374" y="436"/>
      <point x="406" y="416"/>
      <point x="406" y="378" type="curve" smooth="yes"/>
      <point x="406" y="331"/>
      <point x="361" y="303"/>
      <point x="232" y="303" type="curve" smooth="yes"/>
      <point x="211" y="303"/>
      <point x="191" y="303"/>
      <point x="170" y="304" type="curve"/>
      <point x="195" y="377"/>
      <point x="249" y="436"/>
    </contour>
    <contour>
      <point x="361" y="656" type="curve" smooth="yes"/>
      <point x="336" y="656"/>
      <point x="318" y="680"/>
      <point x="318" y="710" type="curve" smooth="yes"/>
      <point x="318" y="717"/>
      <point x="319" y="723"/>
      <point x="321" y="730" type="curve"/>
      <point x="249" y="730" type="line"/>
      <point x="246" y="719"/>
      <point x="245" y="708"/>
      <point x="245" y="697" type="curve" smooth="yes"/>
      <point x="245" y="637"/>
      <point x="284" y="596"/>
      <point x="349" y="596" type="curve" smooth="yes"/>
      <point x="423" y="596"/>
      <point x="488" y="653"/>
      <point x="505" y="730" type="curve"/>
      <point x="433" y="730" type="line"/>
      <point x="420" y="687"/>
      <point x="389" y="656"/>
    </contour>
  </outline>
</glyph>
<glyph name="Edotaccent" format="1">
  <advance width="578"/>
  <unicode hex="0116"/>
  <outline>
    <contour>
      <point x="10" y="0" type="line"/>
      <point x="479" y="0" type="line"/>
      <point x="505" y="121" type="line"/>
      <point x="173" y="121" type="line"/>
      <point x="212" y="306" type="line"/>
      <point x="491" y="306" type="line"/>
      <point x="515" y="418" type="line"/>
      <point x="236" y="418" type="line"/>
      <point x="272" y="589" type="line"/>
      <point x="596" y="589" type="line"/>
      <point x="621" y="710" type="line"/>
      <point x="161" y="710" type="line"/>
    </contour>
    <contour>
      <point x="467" y="790" type="line"/>
      <point x="493" y="916" type="line"/>
      <point x="373" y="916" type="line"/>
      <point x="346" y="790" type="line"/>
    </contour>
  </outline>
</glyph>
<glyph name="Eogonek" format="1">
  <advance width="578"/>
  <unicode hex="0118"/>
  <outline>
    <contour>
      <point x="10" y="0" type="line"/>
      <point x="214" y="0" type="line"/>
      <point x="145" y="-39"/>
      <point x="111" y="-80"/>
      <point x="111" y="-120" type="curve" smooth="yes"/>
      <point x="111" y="-156"/>
      <point x="142" y="-186"/>
      <point x="208" y="-196" type="curve"/>
      <point x="250" y="-126" type="line"/>
      <point x="215" y="-124"/>
      <point x="198" y="-111"/>
      <point x="198" y="-91" type="curve" smooth="yes"/>
      <point x="198" y="-64"/>
      <point x="227" y="-36"/>
      <point x="290" y="0" type="curve"/>
      <point x="479" y="0" type="line"/>
      <point x="505" y="121" type="line"/>
      <point x="173" y="121" type="line"/>
      <point x="212" y="306" type="line"/>
      <point x="491" y="306" type="line"/>
      <point x="515" y="418" type="line"/>
      <point x="236" y="418" type="line"/>
      <point x="272" y="589" type="line"/>
      <point x="596" y="589" type="line"/>
      <point x="621" y="710" type="line"/>
      <point x="161" y="710" type="line"/>
    </contour>
  </outline>
</glyph>
<glyph name="eogonek" format="1">
  <advance width="551"/>
  <unicode hex="0119"/>
  <outline>
    <contour>
      <point x="203" y="-201" type="curve"/>
      <point x="245" y="-131" type="line"/>
      <point x="210" y="-129"/>
      <point x="193" y="-116"/>
      <point x="193" y="-96" type="curve" smooth="yes"/>
      <point x="193" y="-69"/>
      <point x="222" y="-41"/>
      <point x="285" y="-5" type="curve"/>
      <point x="369" y="10"/>
      <point x="447" y="60"/>
      <point x="492" y="127" type="curve"/>
      <point x="386" y="160" type="line"/>
      <point x="358" y="115"/>
      <point x="307" y="88"/>
      <point x="254" y="88" type="curve" smooth="yes"/>
      <point x="185" y="88"/>
      <point x="154" y="137"/>
      <point x="154" y="207" type="curve" smooth="yes"/>
      <point x="154" y="220" type="line"/>
      <point x="182" y="218"/>
      <point x="207" y="218"/>
      <point x="231" y="218" type="curve" smooth="yes"/>
      <point x="432" y="218"/>
      <point x="533" y="275"/>
      <point x="533" y="387" type="curve" smooth="yes"/>
      <point x="533" y="481"/>
      <point x="460" y="533"/>
      <point x="347" y="533" type="curve" smooth="yes"/>
      <point x="160" y="533"/>
      <point x="16" y="385"/>
      <point x="16" y="211" type="curve" smooth="yes"/>
      <point x="16" y="92"/>
      <point x="86" y="3"/>
      <point x="203" y="-8" type="curve"/>
      <point x="138" y="-46"/>
      <point x="106" y="-86"/>
      <point x="106" y="-125" type="curve" smooth="yes"/>
      <point x="106" y="-161"/>
      <point x="137" y="-191"/>
    </contour>
    <contour>
      <point x="327" y="436" type="curve" smooth="yes"/>
      <point x="374" y="436"/>
      <point x="406" y="416"/>
      <point x="406" y="378" type="curve" smooth="yes"/>
      <point x="406" y="331"/>
      <point x="361" y="303"/>
      <point x="232" y="303" type="curve" smooth="yes"/>
      <point x="211" y="303"/>
      <point x="191" y="303"/>
      <point x="170" y="304" type="curve"/>
      <point x="195" y="377"/>
      <point x="249" y="436"/>
    </contour>
  </outline>
</glyph>
<glyph name="Hcircumflex" format="1">
  <advance width="718"/>
  <unicode hex="0124"/>
  <outline>
    <contour>
      <point x="379" y="783" type="line"/>
      <point x="473" y="846" type="line"/>
      <point x="540" y="783" type="line"/>
      <point x="617" y="815" type="line"/>
      <point x="537" y="916" type="line"/>
      <point x="440" y="916" type="line"/>
      <point x="317" y="815" type="line"/>
    </contour>
    <contour>
      <point x="10" y="0" type="line"/>
      <point x="147" y="0" type="line"/>
      <point x="211" y="303" type="line"/>
      <point x="507" y="303" type="line"/>
      <point x="443" y="0" type="line"/>
      <point x="580" y="0" type="line"/>
      <point x="731" y="710" type="line"/>
      <point x="594" y="710" type="line"/>
      <point x="533" y="423" type="line"/>
      <point x="237" y="423" type="line"/>
      <point x="298" y="710" type="line"/>
      <point x="161" y="710" type="line"/>
    </contour>
  </outline>
</glyph>
<glyph name="hcircumflex" format="1">
  <advance width="582"/>
  <unicode hex="0125"/>
  <outline>
    <contour>
      <point x="353" y="597" type="line"/>
      <point x="441" y="660" type="line"/>
      <point x="503" y="597" type="line"/>
      <point x="574" y="629" type="line"/>
      <point x="500" y="729" type="line"/>
      <point x="410" y="729" type="line"/>
      <point x="296" y="629" type="line"/>
    </contour>
    <contour>
      <point x="-4" y="0" type="line"/>
      <point x="130" y="0" type="line"/>
      <point x="195" y="306" type="line"/>
      <point x="227" y="370"/>
      <point x="294" y="415"/>
      <point x="337" y="415" type="curve" smooth="yes"/>
      <point x="376" y="415"/>
      <point x="398" y="392"/>
      <point x="398" y="343" type="curve" smooth="yes"/>
      <point x="398" y="329"/>
      <point x="396" y="313"/>
      <point x="392" y="294" type="curve" smooth="yes"/>
      <point x="330" y="0" type="line"/>
      <point x="464" y="0" type="line"/>
      <point x="533" y="327" type="line" smooth="yes"/>
      <point x="539" y="355"/>
      <point x="543" y="383"/>
      <point x="543" y="410" type="curve" smooth="yes"/>
      <point x="543" y="479"/>
      <point x="514" y="533"/>
      <point x="420" y="533" type="curve" smooth="yes"/>
      <point x="345" y="533"/>
      <point x="272" y="494"/>
      <point x="220" y="427" type="curve"/>
      <point x="285" y="730" type="line"/>
      <point x="151" y="730" type="line"/>
    </contour>
  </outline>
</glyph>
<glyph name="imacron" format="1">
  <advance width="253"/>
  <unicode hex="012B"/>
  <outline>
    <contour>
      <point x="-4" y="0" type="line"/>
      <point x="130" y="0" type="line"/>
      <point x="241" y="524" type="line"/>
      <point x="107" y="524" type="line"/>
    </contour>
    <contour>
      <point x="335" y="632" type="line"/>
      <point x="353" y="715" type="line"/>
      <point x="67" y="715" type="line"/>
      <point x="49" y="632" type="line"/>
    </contour>
  </outline>
</glyph>
<glyph name="Ibreve" format="1">
  <advance width="285"/>
  <unicode hex="012C"/>
  <outline>
    <contour>
      <point x="10" y="0" type="line"/>
      <point x="147" y="0" type="line"/>
      <point x="298" y="709" type="line"/>
      <point x="161" y="709" type="line"/>
    </contour>
    <contour>
      <point x="250" y="842" type="curve" smooth="yes"/>
      <point x="225" y="842"/>
      <point x="207" y="866"/>
      <point x="207" y="896" type="curve" smooth="yes"/>
      <point x="207" y="903"/>
      <point x="208" y="909"/>
      <point x="210" y="916" type="curve"/>
      <point x="138" y="916" type="line"/>
      <point x="135" y="905"/>
      <point x="134" y="894"/>
      <point x="134" y="883" type="curve" smooth="yes"/>
      <point x="134" y="823"/>
      <point x="173" y="782"/>
      <point x="238" y="782" type="curve" smooth="yes"/>
      <point x="312" y="782"/>
      <point x="377" y="839"/>
      <point x="394" y="916" type="curve"/>
      <point x="322" y="916" type="line"/>
      <point x="309" y="873"/>
      <point x="278" y="842"/>
    </contour>
  </outline>
</glyph>
<glyph name="iogonek" format="1">
  <advance width="253"/>
  <unicode hex="012F"/>
  <outline>
    <contour>
      <point x="-4" y="0" type="line"/>
      <point x="54" y="0" type="line"/>
      <point x="-14" y="-39"/>
      <point x="-49" y="-80"/>
      <point x="-49" y="-120" type="curve" smooth="yes"/>
      <point x="-49" y="-156"/>
      <point x="-18" y="-186"/>
      <point x="48" y="-196" type="curve"/>
      <point x="90" y="-126" type="line"/>
      <point x="55" y="-124"/>
      <point x="38" y="-111"/>
      <point x="38" y="-91" type="curve" smooth="yes"/>
      <point x="38" y="-64"/>
      <point x="67" y="-36"/>
      <point x="130" y="0" type="curve"/>
      <point x="241" y="524" type="line"/>
      <point x="107" y="524" type="line"/>
    </contour>
    <contour>
      <point x="123" y="597" type="line"/>
      <point x="257" y="597" type="line"/>
      <point x="285" y="730" type="line"/>
      <point x="151" y="730" type="line"/>
    </contour>
  </outline>
</glyph>
<glyph name="Idotaccent" format="1">
  <advance width="285"/>
  <unicode hex="0130"/>
  <outline>
    <contour>
      <point x="10" y="0" type="line"/>
      <point x="147" y="0" type="line"/>
      <point x="298" y="709" type="line"/>
      <point x="161" y="709" type="line"/>
    </contour>
    <contour>
      <point x="307" y="790" type="line"/>
      <point x="333" y="916" type="line"/>
      <point x="213" y="916" type="line"/>
      <point x="186" y="790" type="line"/>
    </contour>
  </outline>
</glyph>
<glyph name="IJ" format="1">
  <advance width="764"/>
  <unicode hex="0132"/>
  <outline>
    <contour>
      <point x="10" y="0" type="line"/>
      <point x="147" y="0" type="line"/>
      <point x="298" y="709" type="line"/>
      <point x="161" y="709" type="line"/>
    </contour>
    <contour>
      <point x="379" y="-11" type="curve" smooth="yes"/>
      <point x="604" y="-11"/>
      <point x="663" y="133"/>
      <point x="709" y="349" type="curve" smooth="yes"/>
      <point x="786" y="709" type="line"/>
      <point x="648" y="709" type="line"/>
      <point x="571" y="349" type="line" smooth="yes"/>
      <point x="537" y="189"/>
      <point x="508" y="111"/>
      <point x="405" y="111" type="curve" smooth="yes"/>
      <point x="351" y="111"/>
      <point x="309" y="132"/>
      <point x="296" y="145" type="curve"/>
      <point x="242" y="33" type="line"/>
      <point x="276" y="4"/>
      <point x="321" y="-11"/>
    </contour>
  </outline>
</glyph>
<glyph name="Lcommaaccent" format="1">
  <advance width="561"/>
  <unicode hex="013B"/>
  <outline>
    <contour>
      <point x="225" y="-213" type="line"/>
      <point x="281" y="-141" type="line"/>
      <point x="300" y="-47" type="line"/>
      <point x="188" y="-47" type="line"/>
      <point x="167" y="-141" type="line"/>
      <point x="207" y="-141" type="line"/>
      <point x="164" y="-213" type="line"/>
    </contour>
    <contour>
      <point x="10" y="0" type="line"/>
      <point x="487" y="0" type="line"/>
      <point x="512" y="121" type="line"/>
      <point x="173" y="121" type="line"/>
      <point x="298" y="710" type="line"/>
      <point x="161" y="710" type="line"/>
    </contour>
  </outline>
</glyph>
<glyph name="ldot" format="1">
  <advance width="393"/>
  <unicode hex="0140"/>
  <outline>
    <contour>
      <point x="121" y="-8" type="curve" smooth="yes"/>
      <point x="160" y="-8"/>
      <point x="214" y="2"/>
      <point x="252" y="19" type="curve"/>
      <point x="256" y="121" type="line"/>
      <point x="239" y="113"/>
      <point x="217" y="107"/>
      <point x="203" y="107" type="curve" smooth="yes"/>
      <point x="176" y="107"/>
      <point x="162" y="122"/>
      <point x="162" y="148" type="curve" smooth="yes"/>
      <point x="162" y="154"/>
      <point x="163" y="161"/>
      <point x="164" y="168" type="curve" smooth="yes"/>
      <point x="283" y="730" type="line"/>
      <point x="150" y="730" type="line"/>
      <point x="20" y="121" type="line" smooth="yes"/>
      <point x="18" y="107"/>
      <point x="16" y="95"/>
      <point x="16" y="83" type="curve" smooth="yes"/>
      <point x="16" y="25"/>
      <point x="53" y="-8"/>
    </contour>
    <contour>
      <point x="372" y="266" type="line"/>
      <point x="404" y="417" type="line"/>
      <point x="294" y="417" type="line"/>
      <point x="262" y="266" type="line"/>
    </contour>
  </outline>
</glyph>
<glyph name="ncaron" format="1">
  <advance width="582"/>
  <unicode hex="0148"/>
  <outline>
    <contour>
      <point x="299" y="597" type="line"/>
      <point x="396" y="597" type="line"/>
      <point x="520" y="698" type="line"/>
      <point x="457" y="730" type="line"/>
      <point x="363" y="667" type="line"/>
      <point x="296" y="730" type="line"/>
      <point x="219" y="698" type="line"/>
    </contour>
    <contour>
      <point x="-4" y="0" type="line"/>
      <point x="130" y="0" type="line"/>
      <point x="195" y="306" type="line"/>
      <point x="227" y="369"/>
      <point x="293" y="415"/>
      <point x="342" y="415" type="curve" smooth="yes"/>
      <point x="377" y="415"/>
      <point x="399" y="393"/>
      <point x="399" y="347" type="curve" smooth="yes"/>
      <point x="399" y="332"/>
      <point x="396" y="314"/>
      <point x="392" y="294" type="curve" smooth="yes"/>
      <point x="330" y="0" type="line"/>
      <point x="464" y="0" type="line"/>
      <point x="533" y="327" type="line" smooth="yes"/>
      <point x="539" y="356"/>
      <point x="543" y="385"/>
      <point x="543" y="412" type="curve" smooth="yes"/>
      <point x="543" y="480"/>
      <point x="516" y="533"/>
      <point x="426" y="533" type="curve" smooth="yes"/>
      <point x="340" y="533"/>
      <point x="258" y="493"/>
      <point x="207" y="427" type="curve"/>
      <point x="228" y="524" type="line"/>
      <point x="107" y="524" type="line"/>
    </contour>
  </outline>
</glyph>
<glyph name="ohungarumlaut" format="1">
  <advance width="586"/>
  <unicode hex="0151"/>
  <outline>
    <contour>
      <point x="398" y="730" type="line"/>
      <point x="295" y="730" type="line"/>
      <point x="225" y="611" type="line"/>
      <point x="292" y="595" type="line"/>
    </contour>
    <contour>
      <point x="554" y="730" type="line"/>
      <point x="451" y="730" type="line"/>
      <point x="382" y="611" type="line"/>
      <point x="448" y="595" type="line"/>
    </contour>
    <contour>
      <point x="227" y="-10" type="curve" smooth="yes"/>
      <point x="417" y="-10"/>
      <point x="554" y="150"/>
      <point x="554" y="314" type="curve" smooth="yes"/>
      <point x="554" y="434"/>
      <point x="481" y="533"/>
      <point x="342" y="533" type="curve" smooth="yes"/>
      <point x="152" y="533"/>
      <point x="15" y="374"/>
      <point x="15" y="208" type="curve" smooth="yes"/>
      <point x="15" y="90"/>
      <point x="87" y="-10"/>
    </contour>
    <contour>
      <point x="251" y="104" type="curve" smooth="yes"/>
      <point x="192" y="104"/>
      <point x="154" y="154"/>
      <point x="154" y="225" type="curve" smooth="yes"/>
      <point x="154" y="331"/>
      <point x="235" y="419"/>
      <point x="318" y="419" type="curve" smooth="yes"/>
      <point x="377" y="419"/>
      <point x="415" y="369"/>
      <point x="415" y="298" type="curve" smooth="yes"/>
      <point x="415" y="191"/>
      <point x="334" y="104"/>
    </contour>
  </outline>
</glyph>
<glyph name="OE" format="1">
  <advance width="1032"/>
  <unicode hex="0152"/>
  <outline>
    <contour>
      <point x="289" y="-5" type="curve" smooth="yes"/>
      <point x="367" y="-5"/>
      <point x="444" y="42"/>
      <point x="500" y="105" type="curve"/>
      <point x="478" y="0" type="line"/>
      <point x="934" y="0" type="line"/>
      <point x="960" y="121" type="line"/>
      <point x="641" y="121" type="line"/>
      <point x="679" y="301" type="line"/>
      <point x="939" y="301" type="line"/>
      <point x="964" y="422" type="line"/>
      <point x="705" y="422" type="line"/>
      <point x="740" y="589" type="line"/>
      <point x="1051" y="589" type="line"/>
      <point x="1077" y="710" type="line"/>
      <point x="629" y="710" type="line"/>
      <point x="607" y="606" type="line"/>
      <point x="578" y="668"/>
      <point x="523" y="715"/>
      <point x="445" y="715" type="curve" smooth="yes"/>
      <point x="232" y="715"/>
      <point x="37" y="505"/>
      <point x="37" y="288" type="curve" smooth="yes"/>
      <point x="37" y="135"/>
      <point x="127" y="-5"/>
    </contour>
    <contour>
      <point x="316" y="117" type="curve" smooth="yes"/>
      <point x="223" y="117"/>
      <point x="177" y="201"/>
      <point x="177" y="298" type="curve" smooth="yes"/>
      <point x="177" y="433"/>
      <point x="277" y="593"/>
      <point x="417" y="593" type="curve" smooth="yes"/>
      <point x="508" y="593"/>
      <point x="555" y="508"/>
      <point x="555" y="412" type="curve" smooth="yes"/>
      <point x="555" y="278"/>
      <point x="457" y="117"/>
    </contour>
  </outline>
</glyph>
<glyph name="racute" format="1">
  <advance width="378"/>
  <unicode hex="0155"/>
  <outline>
    <contour>
      <point x="403" y="730" type="line"/>
      <point x="279" y="730" type="line"/>
      <point x="203" y="611" type="line"/>
      <point x="290" y="594" type="line"/>
    </contour>
    <contour>
      <point x="-4" y="0" type="line"/>
      <point x="130" y="0" type="line"/>
      <point x="197" y="317" type="line"/>
      <point x="236" y="376"/>
      <point x="308" y="407"/>
      <point x="384" y="408" type="curve"/>
      <point x="409" y="527" type="line"/>
      <point x="404" y="528"/>
      <point x="398" y="529"/>
      <point x="385" y="529" type="curve" smooth="yes"/>
      <point x="323" y="529"/>
      <point x="257" y="483"/>
      <point x="206" y="412" type="curve"/>
      <point x="230" y="524" type="line"/>
      <point x="107" y="524" type="line"/>
    </contour>
  </outline>
</glyph>
<glyph name="Rcommaaccent" format="1">
  <advance width="642"/>
  <unicode hex="0156"/>
  <outline>
    <contour>
      <point x="231" y="-213" type="line"/>
      <point x="287" y="-141" type="line"/>
      <point x="306" y="-47" type="line"/>
      <point x="194" y="-47" type="line"/>
      <point x="173" y="-141" type="line"/>
      <point x="213" y="-141" type="line"/>
      <point x="170" y="-213" type="line"/>
    </contour>
    <contour>
      <point x="147" y="0" type="line"/>
      <point x="197" y="238" type="line"/>
      <point x="320" y="238" type="line"/>
      <point x="404" y="0" type="line"/>
      <point x="560" y="0" type="line"/>
      <point x="464" y="267" type="line"/>
      <point x="560" y="307"/>
      <point x="632" y="411"/>
      <point x="632" y="514" type="curve" smooth="yes"/>
      <point x="632" y="614"/>
      <point x="568" y="710"/>
      <point x="461" y="710" type="curve" smooth="yes"/>
      <point x="161" y="710" type="line"/>
      <point x="10" y="0" type="line"/>
    </contour>
    <contour>
      <point x="223" y="359" type="line"/>
      <point x="272" y="589" type="line"/>
      <point x="426" y="589" type="line" smooth="yes"/>
      <point x="462" y="589"/>
      <point x="490" y="551"/>
      <point x="490" y="500" type="curve" smooth="yes"/>
      <point x="490" y="426"/>
      <point x="436" y="359"/>
      <point x="382" y="359" type="curve" smooth="yes"/>
    </contour>
  </outline>
</glyph>
<glyph name="rcommaaccent" format="1">
  <advance width="378"/>
  <unicode hex="0157"/>
  <outline>
    <contour>
      <point x="31" y="-213" type="line"/>
      <point x="87" y="-141" type="line"/>
      <point x="106" y="-47" type="line"/>
      <point x="-6" y="-47" type="line"/>
      <point x="-27" y="-141" type="line"/>
      <point x="13" y="-141" type="line"/>
      <point x="-30" y="-213" type="line"/>
    </contour>
    <contour>
      <point x="-4" y="0" type="line"/>
      <point x="130" y="0" type="line"/>
      <point x="197" y="317" type="line"/>
      <point x="236" y="376"/>
      <point x="308" y="407"/>
      <point x="384" y="408" type="curve"/>
      <point x="409" y="527" type="line"/>
      <point x="404" y="528"/>
      <point x="398" y="529"/>
      <point x="385" y="529" type="curve" smooth="yes"/>
      <point x="323" y="529"/>
      <point x="257" y="483"/>
      <point x="206" y="412" type="curve"/>
      <point x="230" y="524" type="line"/>
      <point x="107" y="524" type="line"/>
    </contour>
  </outline>
</glyph>
<glyph name="uni015E" format="1">
  <advance width="592"/>
  <unicode hex="015E"/>
  <outline>
    <contour>
      <point x="102" y="-176" type="line"/>
      <point x="125" y="-187"/>
      <point x="158" y="-196"/>
      <point x="200" y="-196" type="curve" smooth="yes"/>
      <point x="297" y="-196"/>
      <point x="345" y="-151"/>
      <point x="345" y="-94" type="curve" smooth="yes"/>
      <point x="345" y="-55"/>
      <point x="315" y="-38"/>
      <point x="277" y="-38" type="curve" smooth="yes"/>
      <point x="267" y="-38"/>
      <point x="255" y="-39"/>
      <point x="246" y="-42" type="curve"/>
      <point x="275" y="-7" type="line"/>
      <point x="415" y="2"/>
      <point x="545" y="77"/>
      <point x="545" y="244" type="curve" smooth="yes"/>
      <point x="545" y="342"/>
      <point x="476" y="384"/>
      <point x="369" y="413" type="curve" smooth="yes"/>
      <point x="285" y="436"/>
      <point x="238" y="453"/>
      <point x="238" y="499" type="curve" smooth="yes"/>
      <point x="238" y="556"/>
      <point x="278" y="594"/>
      <point x="358" y="594" type="curve" smooth="yes"/>
      <point x="438" y="594"/>
      <point x="513" y="544"/>
      <point x="523" y="524" type="curve"/>
      <point x="608" y="636" type="line"/>
      <point x="558" y="678"/>
      <point x="482" y="715"/>
      <point x="388" y="715" type="curve" smooth="yes"/>
      <point x="231" y="715"/>
      <point x="87" y="618"/>
      <point x="87" y="453" type="curve" smooth="yes"/>
      <point x="87" y="372"/>
      <point x="140" y="331"/>
      <point x="240" y="300" type="curve" smooth="yes"/>
      <point x="327" y="273"/>
      <point x="391" y="254"/>
      <point x="391" y="202" type="curve" smooth="yes"/>
      <point x="391" y="150"/>
      <point x="351" y="116"/>
      <point x="272" y="116" type="curve" smooth="yes"/>
      <point x="168" y="116"/>
      <point x="79" y="179"/>
      <point x="65" y="203" type="curve"/>
      <point x="-21" y="84" type="line"/>
      <point x="39" y="31"/>
      <point x="126" y="-2"/>
      <point x="217" y="-7" type="curve"/>
      <point x="159" y="-92" type="line"/>
      <point x="175" y="-88"/>
      <point x="211" y="-80"/>
      <point x="237" y="-80" type="curve" smooth="yes"/>
      <point x="264" y="-80"/>
      <point x="281" y="-87"/>
      <point x="281" y="-107" type="curve" smooth="yes"/>
      <point x="281" y="-135"/>
      <point x="256" y="-146"/>
      <point x="220" y="-146" type="curve" smooth="yes"/>
      <point x="186" y="-146"/>
      <point x="152" y="-136"/>
      <point x="139" y="-127" type="curve"/>
    </contour>
  </outline>
</glyph>
<glyph name="utilde" format="1">
  <advance width="595"/>
  <unicode hex="0169"/>
  <outline>
    <contour>
      <point x="145" y="-10" type="curve" smooth="yes"/>
      <point x="229" y="-10"/>
      <point x="308" y="26"/>
      <point x="368" y="98" type="curve"/>
      <point x="362" y="72"/>
      <point x="361" y="60"/>
      <point x="361" y="50" type="curve" smooth="yes"/>
      <point x="361" y="12"/>
      <point x="389" y="-7"/>
      <point x="435" y="-7" type="curve" smooth="yes"/>
      <point x="449" y="-7"/>
      <point x="467" y="-4"/>
      <point x="491" y="0" type="curve"/>
      <point x="515" y="114" type="line"/>
      <point x="498" y="115"/>
      <point x="491" y="121"/>
      <point x="491" y="136" type="curve" smooth="yes"/>
      <point x="491" y="141"/>
      <point x="492" y="147"/>
      <point x="493" y="154" type="curve" smooth="yes"/>
      <point x="572" y="524" type="line"/>
      <point x="438" y="524" type="line"/>
      <point x="369" y="199" type="line"/>
      <point x="326" y="135"/>
      <point x="272" y="104"/>
      <point x="225" y="104" type="curve" smooth="yes"/>
      <point x="186" y="104"/>
      <point x="165" y="128"/>
      <point x="165" y="175" type="curve" smooth="yes"/>
      <point x="165" y="189"/>
      <point x="168" y="205"/>
      <point x="172" y="225" type="curve" smooth="yes"/>
      <point x="235" y="524" type="line"/>
      <point x="102" y="524" type="line"/>
      <point x="32" y="196" type="line" smooth="yes"/>
      <point x="26" y="167"/>
      <point x="22" y="141"/>
      <point x="22" y="118" type="curve" smooth="yes"/>
      <point x="22" y="34"/>
      <point x="64" y="-10"/>
    </contour>
    <contour>
      <point x="408" y="602" type="curve" smooth="yes"/>
      <point x="498" y="602"/>
      <point x="550" y="711"/>
      <point x="554" y="730" type="curve"/>
      <point x="481" y="730" type="line"/>
      <point x="480" y="726"/>
      <point x="465" y="680"/>
      <point x="420" y="680" type="curve" smooth="yes"/>
      <point x="375" y="680"/>
      <point x="363" y="727"/>
      <point x="305" y="727" type="curve" smooth="yes"/>
      <point x="219" y="727"/>
      <point x="169" y="624"/>
      <point x="164" y="599" type="curve"/>
      <point x="238" y="599" type="line"/>
      <point x="238" y="602"/>
      <point x="250" y="647"/>
      <point x="292" y="647" type="curve" smooth="yes"/>
      <point x="334" y="647"/>
      <point x="351" y="602"/>
    </contour>
  </outline>
</glyph>
<glyph name="Umacron" format="1">
  <advance width="719"/>
  <unicode hex="016A"/>
  <outline>
    <contour>
      <point x="295" y="-5" type="curve" smooth="yes"/>
      <point x="503" y="-5"/>
      <point x="625" y="154"/>
      <point x="666" y="348" type="curve" smooth="yes"/>
      <point x="743" y="710" type="line"/>
      <point x="606" y="710" type="line"/>
      <point x="529" y="348" type="line" smooth="yes"/>
      <point x="504" y="232"/>
      <point x="441" y="117"/>
      <point x="320" y="117" type="curve" smooth="yes"/>
      <point x="232" y="117"/>
      <point x="201" y="179"/>
      <point x="201" y="259" type="curve" smooth="yes"/>
      <point x="201" y="287"/>
      <point x="204" y="317"/>
      <point x="211" y="348" type="curve" smooth="yes"/>
      <point x="288" y="710" type="line"/>
      <point x="151" y="710" type="line"/>
      <point x="74" y="348" type="line" smooth="yes"/>
      <point x="65" y="308"/>
      <point x="61" y="271"/>
      <point x="61" y="235" type="curve" smooth="yes"/>
      <point x="61" y="100"/>
      <point x="125" y="-5"/>
    </contour>
    <contour>
      <point x="607" y="818" type="line"/>
      <point x="625" y="901" type="line"/>
      <point x="339" y="901" type="line"/>
      <point x="321" y="818" type="line"/>
    </contour>
  </outline>
</glyph>
<glyph name="uni01C7" format="1">
  <advance width="1040"/>
  <unicode hex="01C7"/>
  <outline>
    <contour>
      <point x="655" y="-11" type="curve" smooth="yes"/>
      <point x="880" y="-11"/>
      <point x="939" y="133"/>
      <point x="985" y="349" type="curve" smooth="yes"/>
      <point x="1062" y="709" type="line"/>
      <point x="924" y="709" type="line"/>
      <point x="847" y="349" type="line" smooth="yes"/>
      <point x="813" y="189"/>
      <point x="784" y="111"/>
      <point x="681" y="111" type="curve" smooth="yes"/>
      <point x="627" y="111"/>
      <point x="585" y="132"/>
      <point x="572" y="145" type="curve"/>
      <point x="518" y="33" type="line"/>
      <point x="552" y="4"/>
      <point x="597" y="-11"/>
    </contour>
    <contour>
      <point x="10" y="0" type="line"/>
      <point x="487" y="0" type="line"/>
      <point x="512" y="121" type="line"/>
      <point x="173" y="121" type="line"/>
      <point x="298" y="710" type="line"/>
      <point x="161" y="710" type="line"/>
    </contour>
  </outline>
</glyph>
<glyph name="uni01F1" format="1">
  <advance width="1279"/>
  <unicode hex="01F1"/>
  <outline>
    <contour>
      <point x="647" y="0" type="line"/>
      <point x="1182" y="0" type="line"/>
      <point x="1207" y="121" type="line"/>
      <point x="845" y="121" type="line"/>
      <point x="1308" y="606" type="line"/>
      <point x="1330" y="710" type="line"/>
      <point x="809" y="710" type="line"/>
      <point x="784" y="589" type="line"/>
      <point x="1145" y="589" type="line"/>
      <point x="669" y="104" type="line"/>
    </contour>
    <contour>
      <point x="10" y="0" type="line"/>
      <point x="257" y="0" type="line" smooth="yes"/>
      <point x="497" y="0"/>
      <point x="676" y="185"/>
      <point x="676" y="435" type="curve" smooth="yes"/>
      <point x="676" y="589"/>
      <point x="591" y="710"/>
      <point x="408" y="710" type="curve" smooth="yes"/>
      <point x="161" y="710" type="line"/>
    </contour>
    <contour>
      <point x="173" y="121" type="line"/>
      <point x="272" y="589" type="line"/>
      <point x="382" y="589" type="line" smooth="yes"/>
      <point x="482" y="589"/>
      <point x="534" y="518"/>
      <point x="534" y="415" type="curve" smooth="yes"/>
      <point x="534" y="259"/>
      <point x="435" y="121"/>
      <point x="282" y="121" type="curve" smooth="yes"/>
    </contour>
  </outline>
</glyph>
<glyph name="Oslashacute" format="1">
  <advance width="729"/>
  <unicode hex="01FE"/>
  <outline>
    <contour>
      <point x="613" y="710" type="line"/>
      <point x="586" y="679" type="line"/>
      <point x="549" y="702"/>
      <point x="506" y="715"/>
      <point x="455" y="715" type="curve" smooth="yes"/>
      <point x="236" y="715"/>
      <point x="37" y="506"/>
      <point x="37" y="290" type="curve" smooth="yes"/>
      <point x="37" y="224"/>
      <point x="53" y="161"/>
      <point x="86" y="110" type="curve"/>
      <point x="-11" y="0" type="line"/>
      <point x="137" y="0" type="line"/>
      <point x="165" y="31" type="line"/>
      <point x="202" y="8"/>
      <point x="247" y="-5"/>
      <point x="299" y="-5" type="curve" smooth="yes"/>
      <point x="517" y="-5"/>
      <point x="714" y="204"/>
      <point x="714" y="418" type="curve" smooth="yes"/>
      <point x="714" y="484"/>
      <point x="697" y="548"/>
      <point x="664" y="600" type="curve"/>
      <point x="761" y="710" type="line"/>
    </contour>
    <contour>
      <point x="326" y="117" type="curve" smooth="yes"/>
      <point x="299" y="117"/>
      <point x="275" y="123"/>
      <point x="255" y="134" type="curve"/>
      <point x="563" y="484" type="line"/>
      <point x="570" y="461"/>
      <point x="574" y="435"/>
      <point x="574" y="408" type="curve" smooth="yes"/>
      <point x="574" y="275"/>
      <point x="473" y="117"/>
    </contour>
    <contour>
      <point x="177" y="301" type="curve" smooth="yes"/>
      <point x="177" y="436"/>
      <point x="279" y="592"/>
      <point x="426" y="592" type="curve" smooth="yes"/>
      <point x="452" y="592"/>
      <point x="475" y="585"/>
      <point x="494" y="575" type="curve"/>
      <point x="187" y="226" type="line"/>
      <point x="180" y="249"/>
      <point x="177" y="274"/>
    </contour>
    <contour>
      <point x="611" y="916" type="line"/>
      <point x="487" y="916" type="line"/>
      <point x="411" y="797" type="line"/>
      <point x="498" y="780" type="line"/>
    </contour>
  </outline>
</glyph>
<glyph name="Odblgrave" format="1">
  <advance width="729"/>
  <unicode hex="020C"/>
  <outline>
    <contour>
      <point x="551" y="781" type="line"/>
      <point x="624" y="799" type="line"/>
      <point x="604" y="918" type="line"/>
      <point x="502" y="918" type="line"/>
    </contour>
    <contour>
      <point x="395" y="781" type="line"/>
      <point x="467" y="799" type="line"/>
      <point x="449" y="918" type="line"/>
      <point x="345" y="918" type="line"/>
    </contour>
    <contour>
      <point x="299" y="-5" type="curve" smooth="yes"/>
      <point x="517" y="-5"/>
      <point x="714" y="204"/>
      <point x="714" y="418" type="curve" smooth="yes"/>
      <point x="714" y="571"/>
      <point x="623" y="715"/>
      <point x="455" y="715" type="curve" smooth="yes"/>
      <point x="236" y="715"/>
      <point x="37" y="506"/>
      <point x="37" y="290" type="curve" smooth="yes"/>
      <point x="37" y="136"/>
      <point x="130" y="-5"/>
    </contour>
    <contour>
      <point x="326" y="117" type="curve" smooth="yes"/>
      <point x="226" y="117"/>
      <point x="177" y="203"/>
      <point x="177" y="301" type="curve" smooth="yes"/>
      <point x="177" y="436"/>
      <point x="279" y="592"/>
      <point x="426" y="592" type="curve" smooth="yes"/>
      <point x="525" y="592"/>
      <point x="574" y="507"/>
      <point x="574" y="408" type="curve" smooth="yes"/>
      <point x="574" y="275"/>
      <point x="473" y="117"/>
    </contour>
  </outline>
</glyph>
<glyph name="uni0394" format="1">
  <advance width="637"/>
  <unicode hex="0394"/>
  <outline>
    <contour>
      <point x="-16" y="0" type="line"/>
      <point x="599" y="0" type="line"/>
      <point x="599" y="104" type="line"/>
      <point x="349" y="710" type="line"/>
      <point x="237" y="710" type="line"/>
      <point x="-16" y="104" type="line"/>
    </contour>
    <contour>
      <point x="124" y="121" type="line"/>
      <point x="293" y="557" type="line"/>
      <point x="463" y="121" type="line"/>
    </contour>
  </outline>
</glyph>
<glyph name="uni03BC" format="1">
  <advance width="606"/>
  <unicode hex="03BC"/>
  <outline>
    <contour>
      <point x="-50" y="-212" type="line"/>
      <point x="84" y="-212" type="line"/>
      <point x="131" y="49" type="line"/>
      <point x="134" y="15"/>
      <point x="157" y="-10"/>
      <point x="201" y="-10" type="curve" smooth="yes"/>
      <point x="265" y="-10"/>
      <point x="343" y="50"/>
      <point x="374" y="98" type="curve"/>
      <point x="368" y="73"/>
      <point x="367" y="56"/>
      <point x="367" y="50" type="curve" smooth="yes"/>
      <point x="367" y="13"/>
      <point x="393" y="-7"/>
      <point x="441" y="-7" type="curve" smooth="yes"/>
      <point x="456" y="-7"/>
      <point x="476" y="-4"/>
      <point x="502" y="0" type="curve"/>
      <point x="526" y="114" type="line"/>
      <point x="505" y="115"/>
      <point x="497" y="121"/>
      <point x="497" y="137" type="curve" smooth="yes"/>
      <point x="497" y="142"/>
      <point x="498" y="148"/>
      <point x="499" y="154" type="curve" smooth="yes"/>
      <point x="578" y="524" type="line"/>
      <point x="444" y="524" type="line"/>
      <point x="375" y="199" type="line"/>
      <point x="332" y="135"/>
      <point x="277" y="104"/>
      <point x="233" y="104" type="curve" smooth="yes"/>
      <point x="191" y="104"/>
      <point x="170" y="128"/>
      <point x="170" y="174" type="curve" smooth="yes"/>
      <point x="170" y="189"/>
      <point x="173" y="206"/>
      <point x="177" y="225" type="curve" smooth="yes"/>
      <point x="241" y="524" type="line"/>
      <point x="107" y="524" type="line"/>
    </contour>
  </outline>
</glyph>
<glyph name="tdotbelow" format="1">
  <advance width="373"/>
  <unicode hex="1E6D"/>
  <outline>
    <contour>
      <point x="171" y="-196" type="line"/>
      <point x="198" y="-70" type="line"/>
      <point x="78" y="-70" type="line"/>
      <point x="51" y="-196" type="line"/>
    </contour>
    <contour>
      <point x="156" y="-9" type="curve" smooth="yes"/>
      <point x="209" y="-9"/>
      <point x="268" y="8"/>
      <point x="307" y="27" type="curve"/>
      <point x="303" y="133" type="line"/>
      <point x="285" y="125"/>
      <point x="256" y="114"/>
      <point x="230" y="114" type="curve" smooth="yes"/>
      <point x="208" y="114"/>
      <point x="192" y="124"/>
      <point x="192" y="149" type="curve" smooth="yes"/>
      <point x="192" y="154"/>
      <point x="193" y="159"/>
      <point x="194" y="165" type="curve" smooth="yes"/>
      <point x="249" y="421" type="line"/>
      <point x="353" y="421" type="line"/>
      <point x="375" y="524" type="line"/>
      <point x="270" y="524" type="line"/>
      <point x="306" y="694" type="line"/>
      <point x="172" y="694" type="line"/>
      <point x="136" y="524" type="line"/>
      <point x="72" y="524" type="line"/>
      <point x="50" y="421" type="line"/>
      <point x="115" y="421" type="line"/>
      <point x="51" y="120" type="line" smooth="yes"/>
      <point x="48" y="107"/>
      <point x="47" y="95"/>
      <point x="47" y="83" type="curve" smooth="yes"/>
      <point x="47" y="18"/>
      <point x="93" y="-9"/>
    </contour>
  </outline>
</glyph>
<glyph name="Zdotbelow" format="1">
  <advance width="597"/>
  <unicode hex="1E92"/>
  <outline>
    <contour>
      <point x="-35" y="0" type="line"/>
      <point x="500" y="0" type="line"/>
      <point x="525" y="121" type="line"/>
      <point x="163" y="121" type="line"/>
      <point x="626" y="606" type="line"/>
      <point x="648" y="710" type="line"/>
      <point x="127" y="710" type="line"/>
      <point x="102" y="589" type="line"/>
      <point x="463" y="589" type="line"/>
      <point x="-13" y="104" type="line"/>
    </contour>
    <contour>
      <point x="255" y="-196" type="line"/>
      <point x="282" y="-70" type="line"/>
      <point x="162" y="-70" type="line"/>
      <point x="135" y="-196" type="line"/>
    </contour>
  </outline>
</glyph>
<glyph name="Etilde" format="1">
  <advance width="578"/>
  <unicode hex="1EBC"/>
  <outline>
    <contour>
      <point x="10" y="0" type="line"/>
      <point x="479" y="0" type="line"/>
      <point x="505" y="121" type="line"/>
      <point x="173" y="121" type="line"/>
      <point x="212" y="306" type="line"/>
      <point x="491" y="306" type="line"/>
      <point x="515" y="418" type="line"/>
      <point x="236" y="418" type="line"/>
      <point x="272" y="589" type="line"/>
      <point x="596" y="589" type="line"/>
      <point x="621" y="710" type="line"/>
      <point x="161" y="710" type="line"/>
    </contour>
    <contour>
      <point x="463" y="788" type="curve" smooth="yes"/>
      <point x="553" y="788"/>
      <point x="605" y="897"/>
      <point x="609" y="916" type="curve"/>
      <point x="536" y="916" type="line"/>
      <point x="535" y="912"/>
      <point x="520" y="866"/>
      <point x="475" y="866" type="curve" smooth="yes"/>
      <point x="430" y="866"/>
      <point x="418" y="913"/>
      <point x="360" y="913" type="curve" smooth="yes"/>
      <point x="274" y="913"/>
      <point x="224" y="810"/>
      <point x="219" y="785" type="curve"/>
      <point x="293" y="785" type="line"/>
      <point x="293" y="788"/>
      <point x="305" y="833"/>
      <point x="347" y="833" type="curve" smooth="yes"/>
      <point x="389" y="833"/>
      <point x="406" y="788"/>
    </contour>
  </outline>
</glyph>
<glyph name="idotbelow" format="1">
  <advance width="253"/>
  <unicode hex="1ECB"/>
  <outline>
    <contour>
      <point x="-4" y="0" type="line"/>
      <point x="130" y="0" type="line"/>
      <point x="241" y="524" type="line"/>
      <point x="107" y="524" type="line"/>
    </contour>
    <contour>
      <point x="123" y="597" type="line"/>
      <point x="257" y="597" type="line"/>
      <point x="285" y="730" type="line"/>
      <point x="151" y="730" type="line"/>
    </contour>
    <contour>
      <point x="82" y="-196" type="line"/>
      <point x="109" y="-70" type="line"/>
      <point x="-11" y="-70" type="line"/>
      <point x="-38" y="-196" type="line"/>
    </contour>
  </outline>
</glyph>
<glyph name="ygrave" format="1">
  <advance width="520"/>
  <unicode hex="1EF3"/>
  <outline>
    <contour>
      <point x="-28" y="-229" type="line"/>
      <point x="89" y="-227"/>
      <point x="164" y="-176"/>
      <point x="257" y="-26" type="curve" smooth="yes"/>
      <point x="337" y="103" type="line" smooth="yes"/>
      <point x="469" y="316"/>
      <point x="507" y="395"/>
      <point x="543" y="524" type="curve"/>
      <point x="413" y="524" type="line"/>
      <point x="385" y="403"/>
      <point x="345" y="308"/>
      <point x="263" y="172" type="curve" smooth="yes"/>
      <point x="229" y="116" type="line"/>
      <point x="184" y="524" type="line"/>
      <point x="47" y="524" type="line"/>
      <point x="134" y="-11" type="line"/>
      <point x="105" y="-50" type="line" smooth="yes"/>
      <point x="64" y="-106"/>
      <point x="36" y="-119"/>
      <point x="-44" y="-126" type="curve"/>
    </contour>
    <contour>
      <point x="280" y="593" type="line"/>
      <point x="373" y="611" type="line"/>
      <point x="347" y="730" type="line"/>
      <point x="224" y="730" type="line"/>
    </contour>
  </outline>
</glyph>
<glyph name="quoteleft" format="1">
  <advance width="245"/>
  <unicode hex="2018"/>
  <outline>
    <contour>
      <point x="181" y="730" type="line"/>
      <point x="120" y="610" type="line"/>
      <point x="91" y="473" type="line"/>
      <point x="227" y="473" type="line"/>
      <point x="255" y="608" type="line"/>
      <point x="216" y="608" type="line"/>
      <point x="263" y="730" type="line"/>
    </contour>
  </outline>
</glyph>
<glyph name="guilsinglleft" format="1">
  <advance width="345"/>
  <unicode hex="2039"/>
  <outline>
    <contour>
      <point x="19" y="223" type="line"/>
      <point x="234" y="46" type="line"/>
      <point x="257" y="156" type="line"/>
      <point x="133" y="259" type="line"/>
      <point x="302" y="368" type="line"/>
      <point x="325" y="477" type="line"/>
      <point x="33" y="288" type="line"/>
    </contour>
  </outline>
</glyph>
<glyph name="oneinferior" format="1">
  <advance width="322"/>
  <unicode hex="2081"/>
  <outline>
    <contour>
      <point x="153" y="-7" type="line"/>
      <point x="228" y="341" type="line"/>
      <point x="147" y="341" type="line"/>
      <point x="146" y="338"/>
      <point x="75" y="284"/>
      <point x="28" y="284" type="curve"/>
      <point x="11" y="204" type="line"/>
      <point x="47" y="204"/>
      <point x="110" y="237"/>
      <point x="129" y="255" type="curve"/>
      <point x="74" y="-7" type="line"/>
      <point x="-19" y="-7" type="line"/>
      <point x="-35" y="-85" type="line"/>
      <point x="223" y="-85" type="line"/>
      <point x="239" y="-7" type="line"/>
    </contour>
  </outline>
</glyph>
<glyph name="threeinferior" format="1">
  <advance width="392"/>
  <unicode hex="2083"/>
  <outline>
    <contour>
      <point x="100" y="-90" type="curve" smooth="yes"/>
      <point x="198" y="-90"/>
      <point x="303" y="-46"/>
      <point x="303" y="48" type="curve" smooth="yes"/>
      <point x="303" y="93"/>
      <point x="274" y="130"/>
      <point x="223" y="138" type="curve"/>
      <point x="291" y="150"/>
      <point x="335" y="188"/>
      <point x="335" y="242" type="curve" smooth="yes"/>
      <point x="335" y="299"/>
      <point x="278" y="342"/>
      <point x="193" y="342" type="curve" smooth="yes"/>
      <point x="130" y="342"/>
      <point x="61" y="321"/>
      <point x="24" y="283" type="curve"/>
      <point x="61" y="219" type="line"/>
      <point x="91" y="249"/>
      <point x="128" y="269"/>
      <point x="179" y="269" type="curve" smooth="yes"/>
      <point x="211" y="269"/>
      <point x="248" y="255"/>
      <point x="248" y="228" type="curve" smooth="yes"/>
      <point x="248" y="187"/>
      <point x="190" y="170"/>
      <point x="108" y="170" type="curve" smooth="yes"/>
      <point x="86" y="170" type="line"/>
      <point x="71" y="98" type="line"/>
      <point x="94" y="98" type="line" smooth="yes"/>
      <point x="174" y="98"/>
      <point x="223" y="82"/>
      <point x="223" y="48" type="curve" smooth="yes"/>
      <point x="223" y="10"/>
      <point x="173" y="-10"/>
      <point x="116" y="-10" type="curve" smooth="yes"/>
      <point x="47" y="-10"/>
      <point x="17" y="30"/>
      <point x="16" y="47" type="curve"/>
      <point x="-39" y="-11" type="line"/>
      <point x="-32" y="-62"/>
      <point x="22" y="-90"/>
    </contour>
  </outline>
</glyph>
<glyph name="eightinferior" format="1">
  <advance width="407"/>
  <unicode hex="2088"/>
  <outline>
    <contour>
      <point x="321" y="56" type="curve" smooth="yes"/>
      <point x="321" y="95"/>
      <point x="295" y="124"/>
      <point x="260" y="141" type="curve"/>
      <point x="306" y="159"/>
      <point x="345" y="191"/>
      <point x="345" y="238" type="curve" smooth="yes"/>
      <point x="345" y="297"/>
      <point x="278" y="337"/>
      <point x="210" y="337" type="curve" smooth="yes"/>
      <point x="130" y="337"/>
      <point x="30" y="284"/>
      <point x="30" y="209" type="curve" smooth="yes"/>
      <point x="30" y="176"/>
      <point x="52" y="153"/>
      <point x="79" y="141" type="curve"/>
      <point x="25" y="119"/>
      <point x="-25" y="86"/>
      <point x="-25" y="23" type="curve" smooth="yes"/>
      <point x="-25" y="-41"/>
      <point x="35" y="-90"/>
      <point x="120" y="-90" type="curve" smooth="yes"/>
      <point x="222" y="-90"/>
      <point x="321" y="-28"/>
    </contour>
    <contour>
      <point x="241" y="54" type="curve" smooth="yes"/>
      <point x="241" y="16"/>
      <point x="187" y="-11"/>
      <point x="138" y="-11" type="curve" smooth="yes"/>
      <point x="97" y="-11"/>
      <point x="58" y="9"/>
      <point x="58" y="40" type="curve" smooth="yes"/>
      <point x="58" y="79"/>
      <point x="110" y="105"/>
      <point x="161" y="105" type="curve" smooth="yes"/>
      <point x="203" y="105"/>
      <point x="241" y="86"/>
    </contour>
    <contour>
      <point x="108" y="210" type="curve" smooth="yes"/>
      <point x="108" y="241"/>
      <point x="151" y="260"/>
      <point x="194" y="260" type="curve" smooth="yes"/>
      <point x="231" y="260"/>
      <point x="262" y="245"/>
      <point x="262" y="221" type="curve" smooth="yes"/>
      <point x="262" y="189"/>
      <point x="214" y="170"/>
      <point x="175" y="170" type="curve" smooth="yes"/>
      <point x="142" y="170"/>
      <point x="108" y="185"/>
    </contour>
  </outline>
</glyph>
<glyph name="lira" format="1">
  <advance width="514"/>
  <unicode hex="20A4"/>
  <outline>
    <contour>
      <point x="54" y="347" type="line"/>
      <point x="152" y="347" type="line"/>
      <point x="154" y="334"/>
      <point x="155" y="321"/>
      <point x="155" y="309" type="curve" smooth="yes"/>
      <point x="155" y="302" type="line"/>
      <point x="44" y="302" type="line"/>
      <point x="27" y="219" type="line"/>
      <point x="132" y="219" type="line"/>
      <point x="109" y="174"/>
      <point x="69" y="131"/>
      <point x="11" y="87" type="curve"/>
      <point x="20" y="-8" type="line"/>
      <point x="63" y="5"/>
      <point x="114" y="14"/>
      <point x="147" y="14" type="curve" smooth="yes"/>
      <point x="209" y="14"/>
      <point x="261" y="-15"/>
      <point x="319" y="-15" type="curve" smooth="yes"/>
      <point x="356" y="-15"/>
      <point x="401" y="-3"/>
      <point x="435" y="15" type="curve"/>
      <point x="424" y="115" type="line"/>
      <point x="394" y="104"/>
      <point x="373" y="99"/>
      <point x="350" y="99" type="curve" smooth="yes"/>
      <point x="307" y="99"/>
      <point x="271" y="116"/>
      <point x="226" y="116" type="curve" smooth="yes"/>
      <point x="204" y="116"/>
      <point x="180" y="113"/>
      <point x="151" y="104" type="curve"/>
      <point x="200" y="148"/>
      <point x="231" y="185"/>
      <point x="249" y="219" type="curve"/>
      <point x="376" y="219" type="line"/>
      <point x="393" y="302" type="line"/>
      <point x="272" y="302" type="line"/>
      <point x="273" y="308"/>
      <point x="273" y="315"/>
      <point x="273" y="322" type="curve" smooth="yes"/>
      <point x="273" y="330"/>
      <point x="272" y="339"/>
      <point x="272" y="347" type="curve"/>
      <point x="403" y="347" type="line"/>
      <point x="420" y="430" type="line"/>
      <point x="256" y="430" type="line"/>
      <point x="249" y="456"/>
      <point x="244" y="480"/>
      <point x="244" y="503" type="curve" smooth="yes"/>
      <point x="244" y="562"/>
      <point x="289" y="606"/>
      <point x="342" y="606" type="curve" smooth="yes"/>
      <point x="387" y="606"/>
      <point x="435" y="574"/>
      <point x="457" y="528" type="curve"/>
      <point x="544" y="610" type="line"/>
      <point x="510" y="675"/>
      <point x="444" y="715"/>
      <point x="366" y="715" type="curve" smooth="yes"/>
      <point x="243" y="715"/>
      <point x="126" y="621"/>
      <point x="126" y="504" type="curve" smooth="yes"/>
      <point x="126" y="479"/>
      <point x="130" y="455"/>
      <point x="135" y="430" type="curve"/>
      <point x="72" y="430" type="line"/>
    </contour>
  </outline>
</glyph>
<glyph name="uni20A6" format="1">
  <advance width="823"/>
  <unicode hex="20A6"/>
  <outline>
    <contour>
      <point x="823" y="484" type="line"/>
      <point x="744" y="484" type="line"/>
      <point x="792" y="709" type="line"/>
      <point x="655" y="709" type="line"/>
      <point x="606" y="484" type="line"/>
      <point x="430" y="484" type="line"/>
      <point x="313" y="710" type="line"/>
      <point x="206" y="710" type="line"/>
      <point x="158" y="484" type="line"/>
      <point x="77" y="484" type="line"/>
      <point x="60" y="402" type="line"/>
      <point x="140" y="402" type="line"/>
      <point x="117" y="293" type="line"/>
      <point x="36" y="293" type="line"/>
      <point x="19" y="210" type="line"/>
      <point x="99" y="210" type="line"/>
      <point x="55" y="0" type="line"/>
      <point x="193" y="0" type="line"/>
      <point x="237" y="210" type="line"/>
      <point x="418" y="210" type="line"/>
      <point x="529" y="0" type="line"/>
      <point x="641" y="0" type="line"/>
      <point x="685" y="210" type="line"/>
      <point x="766" y="210" type="line"/>
      <point x="783" y="293" type="line"/>
      <point x="703" y="293" type="line"/>
      <point x="726" y="402" type="line"/>
      <point x="806" y="402" type="line"/>
    </contour>
    <contour>
      <point x="278" y="402" type="line"/>
      <point x="317" y="402" type="line"/>
      <point x="374" y="293" type="line"/>
      <point x="255" y="293" type="line"/>
    </contour>
    <contour>
      <point x="473" y="402" type="line"/>
      <point x="589" y="402" type="line"/>
      <point x="565" y="293" type="line"/>
      <point x="529" y="293" type="line"/>
    </contour>
  </outline>
</glyph>
<glyph name="uni20B9" format="1">
  <advance width="517"/>
  <unicode hex="20B9"/>
  <outline>
    <contour>
      <point x="533" y="559" type="line"/>
      <point x="422" y="559" type="line"/>
      <point x="417" y="583"/>
      <point x="408" y="606"/>
      <point x="396" y="627" type="curve"/>
      <point x="548" y="627" type="line"/>
      <point x="565" y="710" type="line"/>
      <point x="126" y="710" type="line"/>
      <point x="102" y="598" type="line"/>
      <point x="223" y="598" type="line" smooth="yes"/>
      <point x="244" y="598"/>
      <point x="263" y="583"/>
      <point x="274" y="559" type="curve"/>
      <point x="94" y="559" type="line"/>
      <point x="77" y="477" type="line"/>
      <point x="283" y="477" type="line"/>
      <point x="272" y="408"/>
      <point x="222" y="350"/>
      <point x="174" y="350" type="curve" smooth="yes"/>
      <point x="63" y="350" type="line"/>
      <point x="203" y="0" type="line"/>
      <point x="359" y="0" type="line"/>
      <point x="248" y="267" type="line"/>
      <point x="339" y="301"/>
      <point x="408" y="385"/>
      <point x="423" y="477" type="curve"/>
      <point x="516" y="477" type="line"/>
    </contour>
  </outline>
</glyph>
<glyph name="servicemark" format="1">
  <advance width="763"/>
  <unicode hex="2120"/>
  <outline>
    <contour>
      <point x="573" y="553" type="line"/>
      <point x="554" y="710" type="line"/>
      <point x="425" y="710" type="line"/>
      <point x="362" y="411" type="line"/>
      <point x="448" y="411" type="line"/>
      <point x="488" y="598" type="line"/>
      <point x="517" y="453" type="line"/>
      <point x="587" y="453" type="line"/>
      <point x="677" y="598" type="line"/>
      <point x="638" y="411" type="line"/>
      <point x="724" y="411" type="line"/>
      <point x="787" y="710" type="line"/>
      <point x="658" y="710" type="line"/>
    </contour>
    <contour>
      <point x="371" y="682" type="line"/>
      <point x="338" y="703"/>
      <point x="301" y="715"/>
      <point x="260" y="715" type="curve" smooth="yes"/>
      <point x="183" y="715"/>
      <point x="119" y="670"/>
      <point x="119" y="602" type="curve" smooth="yes"/>
      <point x="119" y="564"/>
      <point x="147" y="544"/>
      <point x="206" y="528" type="curve" smooth="yes"/>
      <point x="247" y="517"/>
      <point x="261" y="510"/>
      <point x="261" y="497" type="curve" smooth="yes"/>
      <point x="261" y="482"/>
      <point x="245" y="475"/>
      <point x="217" y="475" type="curve" smooth="yes"/>
      <point x="180" y="475"/>
      <point x="145" y="491"/>
      <point x="120" y="510" type="curve"/>
      <point x="73" y="446" type="line"/>
      <point x="104" y="422"/>
      <point x="154" y="407"/>
      <point x="203" y="407" type="curve" smooth="yes"/>
      <point x="285" y="407"/>
      <point x="346" y="445"/>
      <point x="346" y="516" type="curve" smooth="yes"/>
      <point x="346" y="558"/>
      <point x="315" y="579"/>
      <point x="252" y="594" type="curve" smooth="yes"/>
      <point x="213" y="604"/>
      <point x="202" y="612"/>
      <point x="202" y="623" type="curve" smooth="yes"/>
      <point x="202" y="639"/>
      <point x="217" y="648"/>
      <point x="246" y="648" type="curve" smooth="yes"/>
      <point x="276" y="648"/>
      <point x="301" y="635"/>
      <point x="326" y="618" type="curve"/>
    </contour>
  </outline>
</glyph>
<glyph name="threeeighths" format="1">
  <advance width="876"/>
  <unicode hex="215C"/>
  <outline>
    <contour>
      <point x="193" y="298" type="curve" smooth="yes"/>
      <point x="291" y="298"/>
      <point x="395" y="343"/>
      <point x="395" y="437" type="curve" smooth="yes"/>
      <point x="395" y="481"/>
      <point x="366" y="518"/>
      <point x="315" y="526" type="curve"/>
      <point x="384" y="539"/>
      <point x="427" y="576"/>
      <point x="427" y="631" type="curve" smooth="yes"/>
      <point x="427" y="688"/>
      <point x="370" y="731"/>
      <point x="286" y="731" type="curve" smooth="yes"/>
      <point x="222" y="731"/>
      <point x="153" y="710"/>
      <point x="116" y="672" type="curve"/>
      <point x="153" y="608" type="line"/>
      <point x="183" y="637"/>
      <point x="221" y="657"/>
      <point x="271" y="657" type="curve" smooth="yes"/>
      <point x="304" y="657"/>
      <point x="340" y="644"/>
      <point x="340" y="617" type="curve" smooth="yes"/>
      <point x="340" y="576"/>
      <point x="283" y="559"/>
      <point x="200" y="559" type="curve" smooth="yes"/>
      <point x="178" y="559" type="line"/>
      <point x="163" y="486" type="line"/>
      <point x="186" y="486" type="line" smooth="yes"/>
      <point x="267" y="486"/>
      <point x="316" y="470"/>
      <point x="316" y="436" type="curve" smooth="yes"/>
      <point x="316" y="399"/>
      <point x="265" y="379"/>
      <point x="208" y="379" type="curve" smooth="yes"/>
      <point x="139" y="379"/>
      <point x="110" y="418"/>
      <point x="108" y="436" type="curve"/>
      <point x="53" y="377" type="line"/>
      <point x="61" y="326"/>
      <point x="114" y="298"/>
    </contour>
    <contour>
      <point x="151" y="-7" type="line"/>
      <point x="479" y="340" type="line"/>
      <point x="808" y="664" type="line"/>
      <point x="759" y="718" type="line"/>
      <point x="440" y="376" type="line"/>
      <point x="103" y="47" type="line"/>
    </contour>
    <contour>
      <point x="603" y="-5" type="curve" smooth="yes"/>
      <point x="705" y="-5"/>
      <point x="804" y="57"/>
      <point x="804" y="140" type="curve" smooth="yes"/>
      <point x="804" y="180"/>
      <point x="778" y="208"/>
      <point x="743" y="226" type="curve"/>
      <point x="789" y="243"/>
      <point x="828" y="275"/>
      <point x="828" y="322" type="curve" smooth="yes"/>
      <point x="828" y="382"/>
      <point x="761" y="421"/>
      <point x="693" y="421" type="curve" smooth="yes"/>
      <point x="613" y="421"/>
      <point x="513" y="369"/>
      <point x="513" y="294" type="curve" smooth="yes"/>
      <point x="513" y="260"/>
      <point x="534" y="238"/>
      <point x="562" y="226" type="curve"/>
      <point x="508" y="204"/>
      <point x="458" y="170"/>
      <point x="458" y="107" type="curve" smooth="yes"/>
      <point x="458" y="43"/>
      <point x="518" y="-5"/>
    </contour>
    <contour>
      <point x="621" y="74" type="curve" smooth="yes"/>
      <point x="580" y="74"/>
      <point x="540" y="93"/>
      <point x="540" y="125" type="curve" smooth="yes"/>
      <point x="540" y="163"/>
      <point x="593" y="190"/>
      <point x="644" y="190" type="curve" smooth="yes"/>
      <point x="686" y="190"/>
      <point x="724" y="170"/>
      <point x="724" y="139" type="curve" smooth="yes"/>
      <point x="724" y="100"/>
      <point x="670" y="74"/>
    </contour>
    <contour>
      <point x="658" y="255" type="curve" smooth="yes"/>
      <point x="625" y="255"/>
      <point x="591" y="270"/>
      <point x="591" y="294" type="curve" smooth="yes"/>
      <point x="591" y="325"/>
      <point x="634" y="345"/>
      <point x="677" y="345" type="curve" smooth="yes"/>
      <point x="714" y="345"/>
      <point x="745" y="329"/>
      <point x="745" y="305" type="curve" smooth="yes"/>
      <point x="745" y="274"/>
      <point x="697" y="255"/>
    </contour>
  </outline>
</glyph>
<glyph name="fiveeighths" format="1">
  <advance width="886"/>
  <unicode hex="215D"/>
  <outline>
    <contour>
      <point x="265" y="582" type="curve" smooth="yes"/>
      <point x="232" y="582"/>
      <point x="207" y="574"/>
      <point x="191" y="564" type="curve"/>
      <point x="232" y="651" type="line"/>
      <point x="406" y="651" type="line"/>
      <point x="423" y="730" type="line"/>
      <point x="191" y="730" type="line"/>
      <point x="166" y="665"/>
      <point x="112" y="549"/>
      <point x="83" y="477" type="curve"/>
      <point x="152" y="477" type="line"/>
      <point x="173" y="504"/>
      <point x="214" y="522"/>
      <point x="247" y="522" type="curve" smooth="yes"/>
      <point x="279" y="522"/>
      <point x="314" y="503"/>
      <point x="314" y="462" type="curve" smooth="yes"/>
      <point x="314" y="408"/>
      <point x="265" y="380"/>
      <point x="209" y="380" type="curve" smooth="yes"/>
      <point x="162" y="380"/>
      <point x="126" y="398"/>
      <point x="108" y="428" type="curve"/>
      <point x="49" y="375" type="line"/>
      <point x="69" y="331"/>
      <point x="122" y="303"/>
      <point x="188" y="303" type="curve" smooth="yes"/>
      <point x="301" y="303"/>
      <point x="396" y="374"/>
      <point x="396" y="469" type="curve" smooth="yes"/>
      <point x="396" y="535"/>
      <point x="344" y="582"/>
    </contour>
    <contour>
      <point x="150" y="-7" type="line"/>
      <point x="478" y="340" type="line"/>
      <point x="807" y="664" type="line"/>
      <point x="758" y="718" type="line"/>
      <point x="439" y="376" type="line"/>
      <point x="102" y="47" type="line"/>
    </contour>
    <contour>
      <point x="612" y="-5" type="curve" smooth="yes"/>
      <point x="714" y="-5"/>
      <point x="813" y="57"/>
      <point x="813" y="140" type="curve" smooth="yes"/>
      <point x="813" y="180"/>
      <point x="787" y="208"/>
      <point x="752" y="226" type="curve"/>
      <point x="798" y="243"/>
      <point x="837" y="275"/>
      <point x="837" y="322" type="curve" smooth="yes"/>
      <point x="837" y="382"/>
      <point x="770" y="421"/>
      <point x="702" y="421" type="curve" smooth="yes"/>
      <point x="622" y="421"/>
      <point x="522" y="369"/>
      <point x="522" y="294" type="curve" smooth="yes"/>
      <point x="522" y="260"/>
      <point x="543" y="238"/>
      <point x="571" y="226" type="curve"/>
      <point x="517" y="204"/>
      <point x="467" y="170"/>
      <point x="467" y="107" type="curve" smooth="yes"/>
      <point x="467" y="43"/>
      <point x="527" y="-5"/>
    </contour>
    <contour>
      <point x="630" y="74" type="curve" smooth="yes"/>
      <point x="589" y="74"/>
      <point x="549" y="93"/>
      <point x="549" y="125" type="curve" smooth="yes"/>
      <point x="549" y="163"/>
      <point x="602" y="190"/>
      <point x="653" y="190" type="curve" smooth="yes"/>
      <point x="695" y="190"/>
      <point x="733" y="170"/>
      <point x="733" y="139" type="curve" smooth="yes"/>
      <point x="733" y="100"/>
      <point x="679" y="74"/>
    </contour>
    <contour>
      <point x="667" y="255" type="curve" smooth="yes"/>
      <point x="634" y="255"/>
      <point x="600" y="270"/>
      <point x="600" y="294" type="curve" smooth="yes"/>
      <point x="600" y="325"/>
      <point x="643" y="345"/>
      <point x="686" y="345" type="curve" smooth="yes"/>
      <point x="723" y="345"/>
      <point x="754" y="329"/>
      <point x="754" y="305" type="curve" smooth="yes"/>
      <point x="754" y="274"/>
      <point x="706" y="255"/>
    </contour>
  </outline>
</glyph>
<glyph name="radical" format="1">
  <advance width="490"/>
  <unicode hex="221A"/>
  <outline>
    <contour>
      <point x="15" y="285" type="line"/>
      <point x="117" y="285" type="line"/>
      <point x="199" y="0" type="line"/>
      <point x="360" y="0" type="line"/>
      <point x="512" y="790" type="line"/>
      <point x="392" y="790" type="line"/>
      <point x="280" y="100" type="line"/>
      <point x="213" y="379" type="line"/>
      <point x="15" y="379" type="line"/>
    </contour>
  </outline>
</glyph>
<glyph name="s_t" format="1">
  <advance width="830"/>
  <unicode hex="FB06"/>
  <outline>
    <contour>
      <point x="187" y="-10" type="curve" smooth="yes"/>
      <point x="317" y="-10"/>
      <point x="425" y="64"/>
      <point x="425" y="182" type="curve" smooth="yes"/>
      <point x="425" y="260"/>
      <point x="375" y="286"/>
      <point x="276" y="308" type="curve" smooth="yes"/>
      <point x="207" y="323"/>
      <point x="174" y="329"/>
      <point x="174" y="372" type="curve" smooth="yes"/>
      <point x="174" y="419"/>
      <point x="218" y="439"/>
      <point x="267" y="439" type="curve" smooth="yes"/>
      <point x="305" y="439"/>
      <point x="349" y="426"/>
      <point x="395" y="387" type="curve"/>
      <point x="465" y="471" type="line"/>
      <point x="456" y="484"/>
      <point x="444" y="523"/>
      <point x="444" y="560" type="curve" smooth="yes"/>
      <point x="444" y="625"/>
      <point x="480" y="678"/>
      <point x="553" y="678" type="curve" smooth="yes"/>
      <point x="592" y="678"/>
      <point x="607" y="663"/>
      <point x="607" y="622" type="curve" smooth="yes"/>
      <point x="607" y="598"/>
      <point x="602" y="567"/>
      <point x="594" y="524" type="curve"/>
      <point x="529" y="524" type="line"/>
      <point x="507" y="421" type="line"/>
      <point x="572" y="421" type="line"/>
      <point x="511" y="132" type="line" smooth="yes"/>
      <point x="507" y="113"/>
      <point x="504" y="96"/>
      <point x="504" y="83" type="curve" smooth="yes"/>
      <point x="504" y="17"/>
      <point x="551" y="-9"/>
      <point x="613" y="-9" type="curve" smooth="yes"/>
      <point x="665" y="-9"/>
      <point x="724" y="11"/>
      <point x="764" y="27" type="curve"/>
      <point x="764" y="133" type="line"/>
      <point x="745" y="126"/>
      <point x="713" y="114"/>
      <point x="688" y="114" type="curve" smooth="yes"/>
      <point x="664" y="114"/>
      <point x="650" y="124"/>
      <point x="650" y="150" type="curve" smooth="yes"/>
      <point x="650" y="154"/>
      <point x="650" y="158"/>
      <point x="652" y="165" type="curve" smooth="yes"/>
      <point x="706" y="421" type="line"/>
      <point x="810" y="421" type="line"/>
      <point x="832" y="524" type="line"/>
      <point x="728" y="524" type="line"/>
      <point x="737" y="567"/>
      <point x="743" y="604"/>
      <point x="743" y="634" type="curve" smooth="yes"/>
      <point x="743" y="700"/>
      <point x="711" y="738"/>
      <point x="605" y="738" type="curve" smooth="yes"/>
      <point x="445" y="738"/>
      <point x="387" y="653"/>
      <point x="387" y="561" type="curve" smooth="yes"/>
      <point x="387" y="541"/>
      <point x="390" y="520"/>
      <point x="395" y="502" type="curve"/>
      <point x="362" y="527"/>
      <point x="310" y="534"/>
      <point x="278" y="534" type="curve" smooth="yes"/>
      <point x="170" y="534"/>
      <point x="50" y="457"/>
      <point x="50" y="339" type="curve" smooth="yes"/>
      <point x="50" y="259"/>
      <point x="103" y="239"/>
      <point x="200" y="213" type="curve" smooth="yes"/>
      <point x="263" y="196"/>
      <point x="297" y="188"/>
      <point x="297" y="150" type="curve" smooth="yes"/>
      <point x="297" y="108"/>
      <point x="254" y="86"/>
      <point x="202" y="86" type="curve" smooth="yes"/>
      <point x="148" y="86"/>
      <point x="92" y="108"/>
      <point x="40" y="150" type="curve"/>
      <point x="-30" y="59" type="line"/>
      <point x="17" y="20"/>
      <point x="104" y="-10"/>
    </contour>
  </outline>
</glyph>
<glyph name="G.sc" format="1">
  <advance width="597"/>
  <outline>
    <contour>
      <point x="308" y="707" type="move" name="top"/>
    </contour>
    <contour>
      <point x="320" y="0" type="move" name="bottom"/>
    </contour>
    <contour>
      <point x="391" y="0" type="line"/>
      <point x="491" y="0" type="line"/>
      <point x="553" y="290" type="line"/>
      <point x="336" y="290" type="line"/>
      <point x="317" y="202" type="line"/>
      <point x="434" y="202" type="line"/>
      <point x="428" y="175" type="line"/>
      <point x="377" y="128"/>
      <point x="323" y="104"/>
      <point x="273" y="104" type="curve" smooth="yes"/>
      <point x="195" y="104"/>
      <point x="147" y="163"/>
      <point x="147" y="242" type="curve" smooth="yes"/>
      <point x="147" y="353"/>
      <point x="235" y="455"/>
      <point x="341" y="455" type="curve" smooth="yes"/>
      <point x="398" y="455"/>
      <point x="445" y="425"/>
      <point x="459" y="373" type="curve"/>
      <point x="565" y="441" type="line"/>
      <point x="543" y="515"/>
      <point x="473" y="563"/>
      <point x="369" y="563" type="curve" smooth="yes"/>
      <point x="189" y="563"/>
      <point x="24" y="410"/>
      <point x="24" y="234" type="curve" smooth="yes"/>
      <point x="24" y="107"/>
      <point x="110" y="-4"/>
      <point x="240" y="-4" type="curve" smooth="yes"/>
      <point x="296" y="-4"/>
      <point x="350" y="15"/>
      <point x="403" y="58" type="curve"/>
    </contour>
  </outline>
</glyph>
<glyph name="X.sc" format="1">
  <advance width="554"/>
  <outline>
    <contour>
      <point x="-54" y="0" type="line"/>
      <point x="79" y="0" type="line"/>
      <point x="254" y="190" type="line"/>
      <point x="349" y="0" type="line"/>
      <point x="480" y="0" type="line"/>
      <point x="336" y="276" type="line"/>
      <point x="605" y="559" type="line"/>
      <point x="474" y="559" type="line"/>
      <point x="290" y="361" type="line"/>
      <point x="190" y="559" type="line"/>
      <point x="58" y="559" type="line"/>
      <point x="208" y="276" type="line"/>
    </contour>
  </outline>
</glyph>
<glyph name="five.numerator" format="1">
  <advance width="382"/>
  <outline>
    <contour>
      <point x="256" y="582" type="curve" smooth="yes"/>
      <point x="223" y="582"/>
      <point x="198" y="574"/>
      <point x="182" y="564" type="curve"/>
      <point x="223" y="651" type="line"/>
      <point x="397" y="651" type="line"/>
      <point x="414" y="730" type="line"/>
      <point x="182" y="730" type="line"/>
      <point x="157" y="665"/>
      <point x="103" y="549"/>
      <point x="74" y="477" type="curve"/>
      <point x="143" y="477" type="line"/>
      <point x="164" y="504"/>
      <point x="205" y="522"/>
      <point x="238" y="522" type="curve" smooth="yes"/>
      <point x="270" y="522"/>
      <point x="305" y="503"/>
      <point x="305" y="462" type="curve" smooth="yes"/>
      <point x="305" y="408"/>
      <point x="256" y="380"/>
      <point x="200" y="380" type="curve" smooth="yes"/>
      <point x="153" y="380"/>
      <point x="117" y="398"/>
      <point x="99" y="428" type="curve"/>
      <point x="40" y="375" type="line"/>
      <point x="60" y="331"/>
      <point x="113" y="303"/>
      <point x="179" y="303" type="curve" smooth="yes"/>
      <point x="292" y="303"/>
      <point x="387" y="374"/>
      <point x="387" y="469" type="curve" smooth="yes"/>
      <point x="387" y="535"/>
      <point x="335" y="582"/>
    </contour>
  </outline>
</glyph>
<glyph name="nine.lnum" format="1">
  <advance width="592"/>
  <outline>
    <contour>
      <point x="72" y="426" type="curve" smooth="yes"/>
      <point x="72" y="316"/>
      <point x="148" y="232"/>
      <point x="263" y="232" type="curve" smooth="yes"/>
      <point x="324" y="232"/>
      <point x="380" y="262"/>
      <point x="417" y="310" type="curve"/>
      <point x="387" y="181"/>
      <point x="319" y="107"/>
      <point x="237" y="107" type="curve" smooth="yes"/>
      <point x="183" y="107"/>
      <point x="139" y="137"/>
      <point x="120" y="187" type="curve"/>
      <point x="25" y="103" type="line"/>
      <point x="61" y="31"/>
      <point x="126" y="-10"/>
      <point x="211" y="-10" type="curve" smooth="yes"/>
      <point x="424" y="-10"/>
      <point x="571" y="213"/>
      <point x="571" y="481" type="curve" smooth="yes"/>
      <point x="571" y="627"/>
      <point x="501" y="715"/>
      <point x="378" y="715" type="curve" smooth="yes"/>
      <point x="219" y="715"/>
      <point x="72" y="582"/>
    </contour>
    <contour>
      <point x="354" y="603" type="curve" smooth="yes"/>
      <point x="409" y="603"/>
      <point x="448" y="553"/>
      <point x="448" y="493" type="curve" smooth="yes"/>
      <point x="448" y="410"/>
      <point x="372" y="339"/>
      <point x="298" y="339" type="curve" smooth="yes"/>
      <point x="242" y="339"/>
      <point x="204" y="385"/>
      <point x="204" y="445" type="curve" smooth="yes"/>
      <point x="204" y="528"/>
      <point x="280" y="603"/>
    </contour>
  </outline>
</glyph>
<glyph name="three.denominator" format="1">
  <advance width="392"/>
  <outline>
    <contour>
      <point x="119" y="-5" type="curve" smooth="yes"/>
      <point x="217" y="-5"/>
      <point x="321" y="38"/>
      <point x="321" y="133" type="curve" smooth="yes"/>
      <point x="321" y="177"/>
      <point x="293" y="214"/>
      <point x="241" y="222" type="curve"/>
      <point x="310" y="234"/>
      <point x="353" y="272"/>
      <point x="353" y="327" type="curve" smooth="yes"/>
      <point x="353" y="384"/>
      <point x="296" y="427"/>
      <point x="212" y="427" type="curve" smooth="yes"/>
      <point x="148" y="427"/>
      <point x="79" y="406"/>
      <point x="42" y="367" type="curve"/>
      <point x="79" y="304" type="line"/>
      <point x="109" y="333"/>
      <point x="146" y="353"/>
      <point x="197" y="353" type="curve" smooth="yes"/>
      <point x="229" y="353"/>
      <point x="266" y="340"/>
      <point x="266" y="313" type="curve" smooth="yes"/>
      <point x="266" y="272"/>
      <point x="208" y="254"/>
      <point x="126" y="254" type="curve" smooth="yes"/>
      <point x="104" y="254" type="line"/>
      <point x="89" y="182" type="line"/>
      <point x="112" y="182" type="line" smooth="yes"/>
      <point x="193" y="182"/>
      <point x="241" y="166"/>
      <point x="241" y="132" type="curve" smooth="yes"/>
      <point x="241" y="95"/>
      <point x="191" y="74"/>
      <point x="134" y="74" type="curve" smooth="yes"/>
      <point x="65" y="74"/>
      <point x="36" y="115"/>
      <point x="34" y="132" type="curve"/>
      <point x="-21" y="74" type="line"/>
      <point x="-14" y="22"/>
      <point x="40" y="-5"/>
    </contour>
  </outline>
</glyph>
<glyph name="two.numerator" format="1">
  <advance width="403"/>
  <outline>
    <contour>
      <point x="358" y="305" type="line"/>
      <point x="375" y="383" type="line"/>
      <point x="177" y="383" type="line"/>
      <point x="184" y="414"/>
      <point x="215" y="444"/>
      <point x="280" y="464" type="curve" smooth="yes"/>
      <point x="367" y="491"/>
      <point x="437" y="532"/>
      <point x="437" y="625" type="curve" smooth="yes"/>
      <point x="437" y="691"/>
      <point x="391" y="731"/>
      <point x="303" y="731" type="curve" smooth="yes"/>
      <point x="208" y="731"/>
      <point x="137" y="689"/>
      <point x="111" y="662" type="curve"/>
      <point x="148" y="605" type="line"/>
      <point x="176" y="627"/>
      <point x="221" y="654"/>
      <point x="276" y="654" type="curve" smooth="yes"/>
      <point x="320" y="654"/>
      <point x="345" y="637"/>
      <point x="345" y="609" type="curve" smooth="yes"/>
      <point x="345" y="549"/>
      <point x="269" y="530"/>
      <point x="198" y="503" type="curve" smooth="yes"/>
      <point x="97" y="463"/>
      <point x="55" y="414"/>
      <point x="32" y="305" type="curve"/>
    </contour>
  </outline>
</glyph>
